<?xml version="1.0" encoding="utf-8"?>
<!-- Generator: Adobe Illustrator 24.0.2, SVG Export Plug-In . SVG Version: 6.00 Build 0)  -->
<svg version="1.1" id="Layer_1" xmlns="http://www.w3.org/2000/svg" xmlns:xlink="http://www.w3.org/1999/xlink" x="0px" y="0px"
	viewBox="0 0 256 314.401" enable-background="new 0 0 256 314.401" xml:space="preserve" height="53" width="44">
	<g>
		<path fill="#424242" d="M213.803,167.031c0.442,47.579,41.739,63.412,42.197,63.614c-0.349,1.117-6.599,22.564-21.757,44.717
			c-13.104,19.153-26.704,38.235-48.129,38.63c-21.052,0.388-27.821-12.484-51.889-12.484c-24.061,0-31.582,12.088-51.51,12.872
			c-20.68,0.783-36.428-20.711-49.641-39.793c-26.999-39.034-47.632-110.3-19.927-158.406c13.763-23.89,38.359-39.017,65.055-39.405
			c20.307-0.387,39.475,13.662,51.889,13.662c12.406,0,35.699-16.896,60.186-14.414c10.251,0.427,39.026,4.141,57.503,31.187
			C246.292,108.132,213.446,127.253,213.803,167.031 M174.239,50.199C185.218,36.909,192.608,18.408,190.592,0
			c-15.826,0.636-34.962,10.546-46.314,23.828C134.105,35.59,125.196,54.417,127.6,72.46
			C145.239,73.826,163.259,63.497,174.239,50.199"/>
		</g>
	</svg>
