<?xml version="1.0" encoding="utf-8"?>
<!-- Generator: Adobe Illustrator 24.0.2, SVG Export Plug-In . SVG Version: 6.00 Build 0)  -->
<svg version="1.1" id="Art" xmlns="http://www.w3.org/2000/svg" xmlns:xlink="http://www.w3.org/1999/xlink" x="0px" y="0px"
	viewBox="0 0 821.253 425.221" enable-background="new 0 0 821.253 425.221" xml:space="preserve" width="87" height="47">
	<title>Cloud_Logo_Nav</title>
	<g>
		<g>
			<path fill="#EA4335" d="M452.904,69.635h9.582l27.311-27.311l1.339-11.6C440.305-14.147,362.728-9.3,317.857,41.532
				c-12.467,14.108-21.502,30.914-26.444,49.096c3.037-1.245,6.413-1.452,9.582-0.566l54.622-9.016c0,0,2.773-4.602,4.225-4.319
				c24.293-26.689,65.185-29.801,93.251-7.092L452.904,69.635L452.904,69.635z"/>
				<path fill="#4285F4" d="M528.708,90.627c-6.281-23.124-19.163-43.909-37.081-59.791l-38.326,38.326
					c16.183,13.222,25.406,33.158,25.01,54.057v6.809c18.843,0,34.12,15.278,34.12,34.12c0,18.843-15.278,34.12-34.12,34.12h-68.24
					l-6.809,6.903V246.1l6.809,6.809h68.24c49.002,0.377,89.044-39.043,89.422-88.045C567.958,135.102,553.303,107.263,528.708,90.627
					z"/>
					<path fill="#34A853" d="M341.735,252.477h68.24v-54.623h-68.24c-4.866,0-9.657-1.056-14.089-3.074l-9.582,2.98l-27.5,27.311
						l-2.395,9.582C303.578,246.309,322.402,252.571,341.735,252.477z"/>
						<path fill="#FBBC05" d="M341.735,75.293c-49.021,0.283-88.498,40.25-88.215,89.271c0.17,27.368,12.939,53.132,34.648,69.806
							l39.571-39.571c-17.164-7.752-24.803-27.971-17.051-45.135c7.752-17.164,27.971-24.803,45.135-17.051
							c7.563,3.414,13.618,9.487,17.051,17.051l39.571-39.571C395.622,88.062,369.442,75.18,341.735,75.293z"/>
						</g>
						<g>
							<g>
								<path fill="#5F6368" d="M57.208,392.595c-15.13,0.192-29.672-5.78-40.295-16.548C5.941,365.736-0.188,351.291,0.004,336.233
									c-0.18-15.058,5.949-29.491,16.909-39.814c10.576-10.876,25.129-16.969,40.295-16.849c14.445-0.192,28.374,5.42,38.649,15.575
									l-10.864,11.056c-7.439-7.199-17.438-11.14-27.785-10.996c-10.852-0.132-21.271,4.302-28.698,12.21
									c-7.715,7.655-11.97,18.135-11.789,28.999c-0.096,10.744,4.158,21.067,11.789,28.638c15.719,15.671,41.064,15.971,57.156,0.673
									c4.795-5.24,7.727-11.922,8.364-18.988H57.388v-15.623h51.844c0.505,3.149,0.709,6.333,0.613,9.53
									c0.649,13.328-4.182,26.343-13.376,36.029C86.243,387.307,71.966,393.1,57.208,392.595z M177.745,382.212
									c-14.457,13.856-37.267,13.856-51.724,0c-7.006-6.79-10.828-16.2-10.563-25.946c-0.264-9.746,3.569-19.156,10.563-25.946
									c14.469-13.82,37.255-13.82,51.724,0c6.994,6.79,10.828,16.2,10.563,25.946c0.252,9.758-3.605,19.168-10.624,25.946H177.745z
									M137.438,372.021c7.463,7.98,19.985,8.388,27.965,0.913c0.312-0.3,0.625-0.601,0.913-0.913
									c4.074-4.218,6.273-9.891,6.105-15.755c0.18-5.877-2.019-11.585-6.105-15.815c-7.679-8.004-20.394-8.28-28.41-0.601
									c-0.204,0.192-0.409,0.397-0.601,0.601c-4.086,4.23-6.285,9.939-6.105,15.815c-0.156,5.865,2.067,11.549,6.165,15.755
									C137.366,372.021,137.438,372.021,137.438,372.021z M257.242,382.212c-14.457,13.856-37.267,13.856-51.724,0
									c-7.006-6.79-10.828-16.2-10.563-25.946c-0.264-9.746,3.569-19.156,10.563-25.946c14.457-13.856,37.267-13.856,51.724,0
									c6.994,6.79,10.828,16.2,10.563,25.946C268.082,366.012,264.248,375.422,257.242,382.212z M216.947,372.021
									c7.463,7.98,19.985,8.388,27.965,0.913c0.312-0.3,0.625-0.601,0.913-0.913c4.074-4.218,6.273-9.891,6.105-15.755
									c0.18-5.877-2.019-11.585-6.105-15.815c-7.679-8.004-20.394-8.28-28.398-0.601c-0.204,0.192-0.409,0.397-0.601,0.601
									c-4.086,4.23-6.285,9.939-6.105,15.815c-0.156,5.865,2.067,11.549,6.165,15.755C216.887,372.021,216.947,372.021,216.947,372.021
									z M309.506,425.199c-7.319,0.228-14.493-2.055-20.334-6.477c-5.18-3.894-9.266-9.073-11.849-15.022l13.916-5.805
									c1.514,3.557,3.882,6.682,6.898,9.097c3.221,2.596,7.271,3.966,11.417,3.846c5.312,0.324,10.503-1.682,14.229-5.492
									c3.677-4.434,5.492-10.131,5.071-15.875v-5.252h-0.553c-4.723,5.6-11.801,8.653-19.108,8.244
									c-9.266,0.024-18.123-3.822-24.42-10.624c-6.826-6.742-10.6-15.983-10.443-25.586c-0.168-9.65,3.605-18.952,10.443-25.766
									c6.285-6.826,15.142-10.708,24.42-10.684c3.882-0.012,7.727,0.853,11.237,2.5c3.04,1.322,5.744,3.305,7.944,5.805h0.553v-5.805
									h15.142v65.027c0.805,10.395-2.704,20.67-9.71,28.398C327.689,422.111,318.736,425.523,309.506,425.199z M310.612,378.306
									c5.276,0.12,10.335-2.127,13.796-6.105c3.761-4.314,5.756-9.903,5.552-15.635c0.228-5.829-1.755-11.513-5.552-15.935
									c-3.461-3.99-8.521-6.225-13.796-6.105c-5.42-0.108-10.624,2.115-14.289,6.105c-4.038,4.266-6.237,9.951-6.105,15.815
									c-0.12,5.817,2.067,11.441,6.105,15.635C299.964,376.107,305.168,378.378,310.612,378.306z M371.001,283.667v106.729h-15.935
									V283.667H371.001z M414.721,392.595c-9.65,0.252-18.964-3.533-25.706-10.443c-6.838-6.85-10.576-16.212-10.323-25.886
									c-0.361-9.698,3.233-19.132,9.951-26.138c6.345-6.682,15.214-10.383,24.42-10.203c4.194-0.048,8.34,0.769,12.21,2.38
									c3.485,1.406,6.658,3.485,9.338,6.105c2.307,2.223,4.35,4.699,6.105,7.391c1.418,2.271,2.62,4.663,3.605,7.138l1.646,4.158
									l-48.84,20.093c3.029,6.946,10.011,11.321,17.582,10.996c7.319,0.024,14.109-3.81,17.894-10.071l12.21,8.244
									c-3.113,4.458-7.102,8.244-11.729,11.116C427.604,390.937,421.21,392.715,414.721,392.595z M394.327,355.16l32.484-13.496
									c-0.997-2.38-2.788-4.338-5.071-5.552c-2.548-1.442-5.432-2.175-8.364-2.139c-4.963,0.132-9.686,2.211-13.123,5.805
									C396.081,343.768,393.906,349.404,394.327,355.16z"/>
								</g>
								<g>
									<path fill="#5F6368" d="M529.453,392.595c-27.785,0.481-50.69-21.656-51.171-49.44c-0.012-0.673-0.012-1.358,0.012-2.031
										c-0.649-27.785,21.355-50.823,49.128-51.471c0.673-0.012,1.358-0.012,2.031-0.012c13.892-0.433,27.232,5.504,36.209,16.116
										l-8.797,8.545c-6.598-8.304-16.765-12.955-27.352-12.522c-10.155-0.228-19.973,3.701-27.172,10.864
										c-7.487,7.535-11.489,17.846-11.056,28.458c-0.445,10.612,3.569,20.923,11.056,28.458c7.199,7.175,17.017,11.092,27.172,10.864
										c11.825,0.132,23.062-5.132,30.525-14.289l8.797,8.797c-4.603,5.504-10.383,9.903-16.909,12.883
										C544.884,391.081,537.204,392.715,529.453,392.595z"/>
										<path fill="#5F6368" d="M592.461,390.396h-12.643v-98.617h12.643V390.396z"/>
										<path fill="#5F6368" d="M613.108,331.041c13.784-13.688,36.041-13.688,49.825,0c6.538,6.91,10.059,16.14,9.77,25.646
											c0.288,9.506-3.233,18.735-9.77,25.646c-13.784,13.688-36.041,13.688-49.825,0c-6.538-6.91-10.059-16.14-9.77-25.646
											C603.049,347.181,606.558,337.951,613.108,331.041z M622.506,374.401c8.088,8.545,21.572,8.917,30.128,0.829
											c0.288-0.264,0.565-0.553,0.829-0.829c4.459-4.783,6.814-11.164,6.538-17.702c0.288-6.538-2.067-12.919-6.538-17.702
											c-8.088-8.545-21.572-8.917-30.128-0.829c-0.288,0.264-0.565,0.553-0.829,0.829c-4.459,4.783-6.814,11.164-6.538,17.702
											c-0.252,6.526,2.127,12.883,6.598,17.642L622.506,374.401z"/>
											<path fill="#5F6368" d="M742.73,390.396h-12.21v-9.338h-0.36c-2.175,3.545-5.252,6.453-8.917,8.424
												c-3.798,2.199-8.124,3.365-12.522,3.353c-7.235,0.493-14.289-2.343-19.168-7.691c-4.627-5.853-6.946-13.195-6.538-20.634V322.99
												h12.643v39.201c0,12.582,5.552,18.868,16.668,18.868c5.011,0.156,9.782-2.115,12.823-6.105c3.281-4.146,5.023-9.302,4.951-14.589
												V322.99h12.643v67.407L742.73,390.396L742.73,390.396z"/>
												<path fill="#5F6368" d="M785.657,392.595c-8.677,0.024-16.933-3.737-22.593-10.323c-6.333-6.994-9.722-16.152-9.47-25.586
													c-0.252-9.434,3.137-18.591,9.47-25.586c5.66-6.574,13.916-10.347,22.593-10.323c4.807-0.072,9.554,1.058,13.796,3.293
													c3.737,1.875,6.898,4.723,9.157,8.244h0.553l-0.553-9.338v-31.198h12.643v98.617h-12.21v-9.338h-0.553
													c-2.259,3.521-5.42,6.369-9.157,8.244C795.127,391.514,790.428,392.655,785.657,392.595z M787.736,381.058
													c5.78,0.084,11.321-2.319,15.202-6.598c4.29-4.891,6.49-11.273,6.105-17.774c0.385-6.49-1.815-12.883-6.105-17.774
													c-7.667-8.436-20.718-9.049-29.155-1.37c-0.481,0.433-0.937,0.901-1.37,1.37c-4.302,4.855-6.501,11.224-6.105,17.702
													c-0.397,6.478,1.803,12.847,6.105,17.702C776.307,378.691,781.895,381.142,787.736,381.058z"/>
												</g>
											</g>
										</g>
									</svg>
