<?xml version="1.0" encoding="UTF-8"?>
<!DOCTYPE svg PUBLIC "-//W3C//DTD SVG 1.1//EN" "http://www.w3.org/Graphics/SVG/1.1/DTD/svg11.dtd">
<svg xmlns="http://www.w3.org/2000/svg" version="1.1" width="50px" height="50px" style="shape-rendering:geometricPrecision; text-rendering:geometricPrecision; image-rendering:optimizeQuality; fill-rule:evenodd; clip-rule:evenodd" xmlns:xlink="http://www.w3.org/1999/xlink">
<g><path style="opacity:0.996" fill="#7697fe" d="M 42.5,2.5 C 43.0102,5.38779 42.3435,7.72113 40.5,9.5C 21.592,3.90999 13.092,10.91 15,30.5C 17.8005,38.8244 23.6338,42.491 32.5,41.5C 32.5,36.5 32.5,31.5 32.5,26.5C 36.1667,26.5 39.8333,26.5 43.5,26.5C 43.6663,33.175 43.4996,39.8417 43,46.5C 39.1225,47.7329 35.2892,48.7329 31.5,49.5C 29.1667,49.5 26.8333,49.5 24.5,49.5C 13.3751,48.5037 6.54174,42.5037 4,31.5C 0.661608,11.5212 8.99494,1.1879 29,0.5C 33.7584,0.365745 38.2584,1.03241 42.5,2.5 Z"/></g>
<g><path style="opacity:0.098" fill="#acc0fe" d="M 42.5,2.5 C 43.4731,4.9479 43.8064,7.61456 43.5,10.5C 42.209,10.7373 41.209,10.404 40.5,9.5C 42.3435,7.72113 43.0102,5.38779 42.5,2.5 Z"/></g>
<g><path style="opacity:0.828" fill="#fece55" d="M 32.5,13.5 C 36.1667,13.5 39.8333,13.5 43.5,13.5C 43.5,17.1667 43.5,20.8333 43.5,24.5C 39.8333,24.5 36.1667,24.5 32.5,24.5C 32.5,20.8333 32.5,17.1667 32.5,13.5 Z"/></g>
</svg>
