<svg version="1.1" xmlns="http://www.w3.org/2000/svg" xmlns:xlink="http://www.w3.org/1999/xlink" x="0px" y="0px" viewBox="0 0 54 49"
	 style="enable-background:new 0 0 54 49;" xml:space="preserve" width="54" height="49">
<style type="text/css">
	.st0{fill:#01D8F8;}
</style>
	<g>
		<g>
			<path class="st0" d="M44.4,16c-0.6-0.2-1.1-0.4-1.7-0.5c0.1-0.4,0.2-0.8,0.3-1.2c1.3-6.4,0.5-11.5-2.5-13.2
				C37.6-0.5,33,1.2,28.4,5.2C27.9,5.6,27.5,6,27,6.4c-0.3-0.3-0.6-0.6-0.9-0.8c-4.9-4.3-9.8-6.2-12.7-4.5C10.6,2.8,9.8,7.6,11,13.7
				c0.1,0.6,0.2,1.2,0.4,1.8c-0.7,0.2-1.4,0.4-2,0.6c-5.7,2-9.4,5.1-9.4,8.4c0,3.3,3.9,6.7,9.9,8.7c0.5,0.2,1,0.3,1.5,0.5
				c-0.2,0.7-0.3,1.3-0.4,1.9c-1.1,5.9-0.2,10.7,2.6,12.3c2.9,1.7,7.8,0,12.5-4.2c0.4-0.3,0.8-0.7,1.1-1c0.5,0.5,1,0.9,1.5,1.3
				c4.6,3.9,9.1,5.5,11.9,3.9c2.9-1.7,3.8-6.8,2.6-12.9c-0.1-0.5-0.2-1-0.3-1.4c0.3-0.1,0.7-0.2,1-0.3C50,31.2,54,27.8,54,24.5
				C54,21.2,50.2,18.1,44.4,16z M29.9,6.9c4-3.5,7.7-4.8,9.4-3.9c1.8,1,2.5,5.2,1.4,10.8c-0.1,0.4-0.2,0.7-0.2,1.1
				c-2.2-0.5-4.7-0.9-7.2-1.1c-1.5-2.1-3-4-4.6-5.7C29.1,7.7,29.5,7.3,29.9,6.9z M17.2,24.5c0.7-1.5,1.5-2.9,2.3-4.4l0,0
				c0.8-1.4,1.7-2.8,2.6-4.2c1.6-0.1,3.3-0.2,4.9-0.2c1.7,0,3.3,0.1,4.9,0.2c0.9,1.3,1.8,2.7,2.6,4.2c0.8,1.5,1.6,2.9,2.3,4.3
				c-0.7,1.4-1.5,2.9-2.3,4.4c-0.8,1.5-1.7,2.9-2.6,4.2c-1.6,0.1-3.3,0.2-4.9,0.2c-1.7,0-3.3-0.1-4.9-0.2c-0.9-1.3-1.8-2.7-2.6-4.2
				h0C18.6,27.4,17.9,26,17.2,24.5z M15.9,27.2c0.5,0.9,1,1.9,1.5,2.8c0.5,0.9,1.1,1.9,1.7,2.8c-1.8-0.2-3.4-0.5-5-0.8
				C14.7,30.4,15.3,28.8,15.9,27.2z M15.9,21.8c-0.7-1.6-1.2-3.2-1.7-4.7c1.5-0.3,3.2-0.6,4.9-0.8c-0.6,0.9-1.1,1.8-1.7,2.7
				C16.9,19.9,16.4,20.9,15.9,21.8z M36.5,30c0.6-1,1.1-1.9,1.6-2.9c0.7,1.6,1.3,3.2,1.8,4.8c-1.6,0.4-3.3,0.6-5,0.9
				C35.4,31.9,36,30.9,36.5,30z M38.1,21.8c-0.5-0.9-1-1.9-1.6-2.8c-0.5-0.9-1.1-1.8-1.6-2.7c1.7,0.2,3.4,0.5,4.9,0.9
				C39.3,18.6,38.8,20.2,38.1,21.8z M27,9.7c1.1,1.2,2.1,2.4,3.2,3.8c-1.1,0-2.1-0.1-3.2-0.1c-1.1,0-2.1,0-3.2,0.1
				C24.9,12.2,25.9,10.9,27,9.7z M14.6,3.2c1.8-1,5.8,0.4,10,4.2c0.3,0.2,0.5,0.5,0.8,0.7c-1.6,1.7-3.1,3.6-4.6,5.7
				c-2.5,0.2-5,0.6-7.2,1.1c-0.1-0.6-0.3-1.1-0.4-1.7C12.2,8.1,12.9,4.1,14.6,3.2z M12,31.4c-0.5-0.1-0.9-0.3-1.3-0.4
				c-2.6-0.9-4.8-2.1-6.3-3.3c-1.3-1.1-2-2.3-2-3.2c0-2,2.9-4.5,7.8-6.2c0.6-0.2,1.2-0.4,1.9-0.6c0.7,2.2,1.6,4.5,2.6,6.8
				C13.5,26.9,12.6,29.2,12,31.4z M24.5,41.9c-2.1,1.8-4.2,3.1-6,3.8c-1.7,0.6-3,0.6-3.8,0.1c-1.7-1-2.4-4.8-1.4-9.9
				c0.1-0.6,0.2-1.2,0.4-1.8c2.2,0.5,4.7,0.8,7.3,1.1c1.5,2.1,3.1,4,4.6,5.7C25.1,41.3,24.8,41.6,24.5,41.9z M27.1,39.3
				c-1.1-1.2-2.2-2.5-3.2-3.9c1,0,2.1,0.1,3.2,0.1c1.1,0,2.2,0,3.3-0.1C29.2,36.9,28.1,38.2,27.1,39.3z M41.1,42.5
				c-0.3,1.7-1,2.9-1.8,3.4c-1.7,1-5.3-0.3-9.3-3.7c-0.5-0.4-0.9-0.8-1.4-1.2c1.5-1.7,3-3.6,4.5-5.7c2.6-0.2,5.1-0.6,7.3-1.1
				c0.1,0.4,0.2,0.9,0.3,1.3C41.4,38.1,41.5,40.6,41.1,42.5z M43.1,31c-0.3,0.1-0.6,0.2-0.9,0.3c-0.7-2.2-1.6-4.5-2.7-6.8
				c1.1-2.3,2-4.6,2.6-6.7c0.6,0.2,1.1,0.3,1.6,0.5c5,1.7,8,4.3,8,6.2C51.7,26.5,48.4,29.3,43.1,31z"/>
			<path class="st0" d="M27,19.6c2.7,0,4.8,2.2,4.8,4.8c0,2.7-2.2,4.8-4.8,4.8s-4.8-2.2-4.8-4.8C22.2,21.8,24.3,19.6,27,19.6"/>
		</g>
	</g>
</svg>
