<?xml version="1.0" encoding="utf-8"?>
<!-- Generator: Adobe Illustrator 24.0.2, SVG Export Plug-In . SVG Version: 6.00 Build 0)  -->
<svg version="1.1"
	id="svg8" xmlns:cc="http://creativecommons.org/ns#" xmlns:dc="http://purl.org/dc/elements/1.1/" xmlns:inkscape="http://www.inkscape.org/namespaces/inkscape" xmlns:rdf="http://www.w3.org/1999/02/22-rdf-syntax-ns#" xmlns:sodipodi="http://sodipodi.sourceforge.net/DTD/sodipodi-0.dtd" xmlns:svg="http://www.w3.org/2000/svg"
	xmlns="http://www.w3.org/2000/svg" xmlns:xlink="http://www.w3.org/1999/xlink" x="0px" y="0px" viewBox="0 0 1000 872.875"
	enable-background="new 0 0 1000 872.875" xml:space="preserve" width="59" height="52">
	<sodipodi:namedview  bordercolor="#666666" borderopacity="1.0" fit-margin-bottom="0" fit-margin-left="0" fit-margin-right="0" fit-margin-top="0" id="base" inkscape:current-layer="layer1" inkscape:cx="1292.0825" inkscape:cy="333.20379" inkscape:document-units="px" inkscape:pageopacity="0.0" inkscape:pageshadow="2" inkscape:window-height="1017" inkscape:window-maximized="1" inkscape:window-width="1920" inkscape:window-x="1912" inkscape:window-y="-8" inkscape:zoom="0.175" pagecolor="#ffffff" showgrid="false" units="px">
		<inkscape:grid  id="grid823" originx="-66.971031" originy="195.86492" type="xygrid"></inkscape:grid>
	</sodipodi:namedview>
	<g id="layer1" transform="translate(-66.970994,-261.91674)" inkscape:groupmode="layer" inkscape:label="Layer 1">
		<g id="g80302" transform="matrix(1.3212521,0,0,1.3212521,480.52565,-75.040147)">
			<path id="path825" inkscape:connector-curvature="0" d="M-260.217,801.369c-26.025,0-52.785,20.854-52.785,57.357
				c0,33.37,23.529,56.941,52.785,56.941c24.15,0,34.913-16.21,34.913-16.21v7.066c0,3.34,3.157,7.066,7.066,7.066h17.456V803.863
				h-24.522v13.924C-225.305,817.786-236.158,801.369-260.217,801.369L-260.217,801.369z M-255.849,823.806
				c21.424,0,32.662,18.841,32.662,34.912c0,17.9-13.343,34.9-32.616,34.9c-16.111,0-32.25-13.048-32.25-35.136
				C-288.054,838.543-274.165,823.806-255.849,823.806z"/>
				<path id="path829" inkscape:connector-curvature="0" sodipodi:nodetypes="ccccccccccccccc" d="M-166.701,913.589
					c-3.768,0-7.066-2.702-7.066-7.066v-102.66h24.522v13.578c5.557-8.352,16.413-16.106,33.076-16.106
					c27.235,0,41.737,21.711,41.737,42.012v70.241h-17.041c-4.468,0-7.481-3.741-7.481-7.481v-57.357
					c0-11.253-6.895-24.92-22.84-24.92c-17.206,0-27.451,16.261-27.451,31.57v58.188H-166.701z"/>
					<path id="path833" inkscape:connector-curvature="0" sodipodi:nodetypes="ssscssccccssscss" d="M-2.944,801.369
						c-26.024,0-52.785,20.854-52.785,57.357c0,33.37,23.528,56.941,52.785,56.941c24.15,0,34.913-16.21,34.913-16.21v7.066
						c0,3.34,3.157,7.066,7.066,7.066h17.456V749H31.969v68.786C31.969,817.786,21.116,801.369-2.944,801.369L-2.944,801.369z
						M1.424,823.806c21.424,0,32.662,18.841,32.662,34.912c0,17.9-13.343,34.9-32.616,34.9c-16.111,0-32.25-13.048-32.25-35.136
						C-30.78,838.543-16.892,823.806,1.424,823.806z"/>
						<path id="path835" inkscape:connector-curvature="0" sodipodi:nodetypes="cccccccccccc" d="M90.572,913.589
							c-3.768,0-7.066-2.702-7.066-7.066v-102.66h24.522v18.288c4.221-10.245,13.329-19.534,29.51-19.534
							c4.511,0,8.728,0.831,8.728,0.831v25.353c0,0-5.266-2.078-11.638-2.078c-17.206,0-26.6,16.261-26.6,31.57v55.297L90.572,913.589z"
							/>
							<path id="path837" inkscape:connector-curvature="0" sodipodi:nodetypes="cccccc" d="M295.061,913.589
								c-3.768,0-7.066-2.702-7.066-7.066v-102.66h24.522v109.726L295.061,913.589z"/>
								<path id="path839" inkscape:connector-curvature="0" sodipodi:nodetypes="ssscssccccssscss" d="M384.421,801.369
									c-26.025,0-52.785,20.854-52.785,57.357c0,33.37,23.528,56.941,52.785,56.941c24.15,0,34.913-16.21,34.913-16.21v7.066
									c0,3.34,3.158,7.066,7.066,7.066h17.456V749h-24.522v68.786C419.334,817.786,408.481,801.369,384.421,801.369L384.421,801.369z
									M388.789,823.806c21.424,0,32.662,18.841,32.662,34.912c0,17.9-13.343,34.9-32.616,34.9c-16.111,0-32.25-13.048-32.25-35.136
									C356.585,838.543,370.473,823.806,388.789,823.806z"/>
									<circle id="path841" cx="300.064" cy="763.978" r="16.219"/>
									<path id="path843" inkscape:connector-curvature="0" d="M210.937,801.333c-27.255,0-57.198,20.344-57.198,57.198
										c0,33.584,25.505,57.14,57.139,57.14c38.986,0,58.022-31.341,58.022-56.927C268.9,827.346,244.387,801.333,210.937,801.333
										L210.937,801.333z M211.026,824.233c18.847,0,32.906,15.19,32.906,34.367c0,19.509-14.924,34.564-32.85,34.564
										c-16.641,0-32.817-13.542-32.817-34.236C178.266,837.889,193.651,824.233,211.026,824.233L211.026,824.233z"/>
									</g>
									<path id="path80319" inkscape:connector-curvature="0" fill="#32DE84" d="M811.032,430.761l82.897-143.601
										c4.678-8.05,1.849-18.277-6.092-22.954c-7.942-4.678-18.277-1.958-22.846,6.092l-83.985,145.45
										c-64.076-29.264-136.203-45.582-213.77-45.582c-77.566,0-149.693,16.318-213.77,45.582l-83.985-145.45
										c-4.678-8.05-14.904-10.77-22.954-6.092c-8.05,4.678-10.77,14.904-6.092,22.954l82.897,143.601
										c-142.948,77.458-239.77,222.146-255.762,391.53h999.332C1050.911,652.907,954.089,508.218,811.032,430.761z M337.802,681.954
										c-23.172,0-41.884-18.82-41.884-41.884c0-23.172,18.82-41.884,41.884-41.884c23.172,0,41.884,18.82,41.884,41.884
										C379.795,663.133,360.974,681.954,337.802,681.954z M796.563,681.954c-23.172,0-41.884-18.82-41.884-41.884
										c0-23.172,18.82-41.884,41.884-41.884c23.172,0,41.884,18.82,41.884,41.884C838.556,663.133,819.735,681.954,796.563,681.954z"/>
									</g>
								</svg>
