<?xml version="1.0" encoding="utf-8"?>
<!-- Generator: Adobe Illustrator 24.0.2, SVG Export Plug-In . SVG Version: 6.00 Build 0)  -->
<svg version="1.1" id="Angular_Logo" xmlns="http://www.w3.org/2000/svg" xmlns:xlink="http://www.w3.org/1999/xlink" x="0px"
	y="0px" viewBox="0 0 1979.118 505.727" enable-background="new 0 0 1979.118 505.727" xml:space="preserve" width="157" height="40">
	<g>
		<polygon fill="#B3B3B3" points="510.359,163.974 510.359,367.974 534.953,367.974 534.953,201.336 659.771,367.974 
			686.215,367.974 686.215,163.974 661.622,163.974 661.622,328.005 537.068,163.974 	"/>
			<path fill="#B3B3B3" d="M888.616,193.12v-21.878c-85.123-22.275-170.701-3.239-163.484,103.421
				c6.473,92.051,87.112,108.592,163.484,85.123l0,0v-85.123h-26.651v69.61c-50.517,11.933-107.796-2.864-110.979-69.61
				C746.686,180.084,814.233,173.629,888.616,193.12z"/>
				<path fill="#B3B3B3" d="M1072.372,163.974V298.55c-2.885,32.159-23.232,49.471-57.707,49.474
					c-34.475-0.003-54.822-17.315-57.707-49.474V163.974h-26.537V298.55c5.385,57.228,35.07,70.388,73.478,71.202l-0.001,0.003
					c47.101,2.619,88.787-5.055,95.011-71.204V163.974H1072.372z"/>
					<path fill="#B3B3B3" d="M1173.329,346.292V163.974H1147.3c0,8.679,0,195.297,0,204c1.598,0,131.735,0,133.09,0v-21.683h-107.061
						L1173.329,346.292L1173.329,346.292z"/>
						<polygon fill="#B3B3B3" points="1392.213,137.304 1291.756,367.974 1319.268,367.974 1392.213,189.522 1430.109,282.231 
							1377.722,282.231 1370.281,303.041 1438.616,303.041 1465.158,367.974 1492.67,367.974 	"/>
							<path fill="#B3B3B3" d="M1609.216,271.511c37.366-12.031,56.936-30.456,56.79-59.308c-0.317-34.428-21.201-48.906-57.705-48.228
								c-9.248,0-76.76,0-87.474,0v21.665v182.334h27.25V185.639h60.224l0,0c23.128,1.603,29.082,12.137,29.082,27.937
								c0,19.633-10.014,31.432-31.289,38.992c-8.132,2.734-16.865,4.97-26.416,6.577v16.716l64.804,92.113h35.265L1609.216,271.511z"/>
								<path fill="#B3B3B3" d="M1708.704,345.803v22.171c41.947-1.206,70.47-15.839,69.325-60.148V163.974h-26.512v147.077
									C1752.771,332.547,1737.365,345.141,1708.704,345.803z"/>
									<path fill="#B3B3B3" d="M1966.273,170.715v24.192c-61.537-20.256-121.847-12.946-122.066,24.548
										c0.688,26.937,13.893,35.33,59.184,33.627c51.37-2.166,70.224,20.698,69.608,58.511c-1.356,58.963-59.586,67.561-147.623,48.954
										v-24.742c55.646,16.678,122.375,20.196,120.72-23.879c0.222-26.886-10.76-37.659-60.864-35.305
										c-45.659-0.651-69.351-18.93-66.918-58.175C1822.616,161.805,1878.546,150.886,1966.273,170.715z"/>
									</g>
									<polygon fill="#B3B3B3" points="0.603,83.481 239.351,0 479.31,83.481 441.4,394.419 239.956,505.727 38.109,394.419 "/>
									<polygon fill="#A5120D" points="239.372,25.927 239.372,478.125 418.614,379.041 452.62,100.115 "/>
									<polygon fill="#DC1B16" points="239.372,25.927 239.372,478.125 60.13,379.041 26.124,100.115 "/>
									<path fill="none" d="M-113.878,257.105l-43.265-102.751v102.853C-148.457,257.189-135.564,257.154-113.878,257.105z"/>
									<path fill="#FFFFFF" d="M239.42,48.997L239.42,48.997L239.42,48.997L239.42,48.997L239.42,48.997L92.699,374.795H146.6
										l30.949-73.501c4.767,0,118.535,0,123.744,0l30.949,73.501h53.901L239.42,48.997z M196.155,257.105l43.265-102.751l43.265,102.751
										C214.257,257.261,233.315,257.269,196.155,257.105z"/>
										<path fill="#B3B2B2" d="M239.42,48.997L239.42,48.997L239.42,48.997v105.358l43.265,102.751
											c-21.686,0.049-34.579,0.084-43.265,0.103v44.086c29.634,0,59.272,0,61.872,0l30.949,73.501h53.901L239.42,48.997z"/>
											<g>
												<polygon fill="#020202" points="516.464,157.092 516.464,361.092 541.057,361.092 541.057,194.454 665.875,361.092 692.32,361.092 
													692.32,157.092 667.727,157.092 667.727,321.123 543.173,157.092 	"/>
													<path fill="#020202" d="M894.721,186.237v-21.878c-85.123-22.275-170.701-3.239-163.484,103.421
														c6.473,92.051,87.112,108.592,163.484,85.123l0,0V267.78H868.07v69.61c-50.517,11.933-107.796-2.864-110.979-69.61
														C752.79,173.201,820.338,166.746,894.721,186.237z"/>
														<path fill="#020202" d="M1078.477,157.092v134.576c-2.885,32.159-23.232,49.471-57.707,49.474
															c-34.475-0.003-54.822-17.315-57.707-49.474V157.092h-26.537v134.576c5.385,57.228,35.07,70.388,73.478,71.202l-0.001,0.003
															c47.101,2.619,88.787-5.055,95.011-71.204V157.092H1078.477z"/>
															<path fill="#020202" d="M1179.433,339.409V157.092h-26.029c0,8.679,0,195.297,0,204c1.598,0,131.735,0,133.09,0v-21.683
																L1179.433,339.409L1179.433,339.409z"/>
																<polygon fill="#020202" points="1398.318,130.422 1297.861,361.092 1325.373,361.092 1398.318,182.639 1436.214,275.349 
																	1383.827,275.349 1376.386,296.159 1444.721,296.159 1471.263,361.092 1498.775,361.092 	"/>
																	<path fill="#020202" d="M1615.321,264.628c37.366-12.031,56.936-30.456,56.79-59.308c-0.317-34.428-21.201-48.906-57.705-48.228
																		c-9.248,0-76.76,0-87.474,0v21.665v182.335h27.25V178.757h60.224l0,0c23.128,1.603,29.082,12.137,29.082,27.937
																		c0,19.633-10.014,31.432-31.289,38.992c-8.132,2.734-16.865,4.97-26.416,6.577v16.716l64.804,92.113h35.265L1615.321,264.628z"/>
																		<path fill="#A5120D" d="M1714.809,338.92v22.171c41.947-1.206,70.47-15.839,69.325-60.148V157.092h-26.512v147.077
																			C1758.876,325.665,1743.47,338.258,1714.809,338.92z"/>
																			<path fill="#A5120D" d="M1972.377,163.833v24.192c-61.537-20.256-121.847-12.946-122.066,24.548
																				c0.688,26.938,13.893,35.33,59.184,33.627c51.37-2.166,70.224,20.698,69.608,58.511c-1.356,58.963-59.586,67.561-147.623,48.954
																				v-24.742c55.646,16.678,122.375,20.196,120.72-23.879c0.222-26.886-10.76-37.659-60.864-35.305
																				c-45.659-0.651-69.351-18.93-66.918-58.175C1828.721,154.923,1884.651,144.004,1972.377,163.833z"/>
																			</g>
																			<path fill="#00000D" d="M1554.177,438.945c-6.277,0-10.301,2.443-12.691,6.26v-18.753h-5.786v49.316h5.786v-5.266
																				c2.361,4.157,6.362,6.932,12.691,6.713c7.573-0.263,13.743-8.812,13.743-18.872C1567.92,447.098,1561.767,438.945,1554.177,438.945z
																				M1552.533,471.995c-5.786,0-11.047-2.804-11.047-13.91c0-9.541,4.077-13.91,11.047-13.91c6.313,0,8.943,6.228,8.943,13.91
																				C1561.476,465.768,1558.583,471.995,1552.533,471.995z"/>
																				<path fill="#00000D" d="M1596.224,440.675l-9.331,28.796l-9.652-28.796h-7.32c0,0,12.958,35.919,13.56,37.603
																					c-0.323,1.25-0.617,1.806-1.494,4.143c-1.668,4.443-3.766,5.092-8.285,3.298v5.791c6.539,1.068,10.096,0.56,13.031-7.078
																					c1.388-3.612,16.811-43.757,16.811-43.757H1596.224z"/>
																					<g>
																						<path d="M1711.323,431.462h-39.812v11.712h28.335c-1.383,16.424-15.047,23.428-27.945,23.428
																							c-16.502,0-30.901-12.984-30.901-31.182c0-17.728,13.727-31.381,30.938-31.381c13.279,0,21.103,8.465,21.103,8.465l8.201-8.492
																							c0,0-10.526-11.718-29.723-11.718c-24.445,0-43.357,20.632-43.357,42.917c0,21.837,17.789,43.13,43.98,43.13
																							c23.035,0,39.897-15.78,39.897-39.114c0-4.923-0.715-7.768-0.715-7.768L1711.323,431.462z"/>
																							<path d="M1745.023,422.98c-16.196,0-27.802,12.662-27.802,27.429c0,14.986,11.258,27.883,27.993,27.883
																								c15.149,0,27.561-11.579,27.561-27.561C1772.774,432.414,1758.337,422.98,1745.023,422.98L1745.023,422.98z M1745.184,433.843
																								c7.964,0,15.512,6.439,15.512,16.815c0,10.155-7.515,16.778-15.548,16.778c-8.827,0-15.79-7.069-15.79-16.859
																								C1729.357,440.998,1736.234,433.843,1745.184,433.843L1745.184,433.843z"/>
																								<path d="M1805.147,422.98c-16.196,0-27.802,12.662-27.802,27.429c0,14.986,11.258,27.883,27.993,27.883
																									c15.149,0,27.561-11.579,27.561-27.561C1832.898,432.414,1818.461,422.98,1805.147,422.98L1805.147,422.98z M1805.308,433.843
																									c7.964,0,15.512,6.439,15.512,16.815c0,10.155-7.515,16.778-15.548,16.778c-8.827,0-15.79-7.069-15.79-16.859
																									C1789.482,440.998,1796.359,433.843,1805.308,433.843L1805.308,433.843z"/>
																									<path d="M1864.455,423.009c-14.866,0-26.551,13.02-26.551,27.634c0,16.646,13.547,27.685,26.294,27.685
																										c7.882,0,12.073-3.129,15.168-6.72v5.453c0,9.542-5.793,15.255-14.538,15.255c-8.448,0-12.685-6.281-14.157-9.846l-10.629,4.443
																										c3.771,7.973,11.361,16.287,24.874,16.287c14.78,0,26.045-9.31,26.045-28.834v-50.379h-11.595v5.369
																										C1875.802,425.515,1870.926,423.01,1864.455,423.009L1864.455,423.009z M1865.531,433.85c7.288,0,14.772,6.223,14.772,16.851
																										c0,10.803-7.468,16.756-14.933,16.756c-7.925,0-15.299-6.435-15.299-16.653C1850.071,440.186,1857.729,433.85,1865.531,433.85
																										L1865.531,433.85z"/>
																										<path d="M1941.492,422.943c-14.022,0-25.797,11.157-25.797,27.619c0,17.42,13.124,27.751,27.144,27.751
																											c11.701,0,18.883-6.401,23.169-12.137l-9.56-6.361c-2.481,3.85-6.628,7.613-13.55,7.613c-7.775,0-11.35-4.257-13.564-8.382
																											l37.083-15.387l-1.925-4.509c-3.582-8.831-11.939-16.205-22.997-16.205L1941.492,422.943z M1941.976,433.579
																											c5.053,0,8.689,2.686,10.234,5.907l-24.764,10.351C1926.377,441.824,1933.969,433.579,1941.976,433.579L1941.976,433.579z"/>
																											<rect x="1898.701" y="395.155" width="11.359" height="81.517"/>
																										</g>
																									</svg>
