<?xml version="1.0" encoding="utf-8"?>
<!-- Generator: Adobe Illustrator 24.0.2, SVG Export Plug-In . SVG Version: 6.00 Build 0)  -->
<svg version="1.1"
	id="svg8159" xmlns:cc="http://creativecommons.org/ns#" xmlns:dc="http://purl.org/dc/elements/1.1/" xmlns:inkscape="http://www.inkscape.org/namespaces/inkscape" xmlns:rdf="http://www.w3.org/1999/02/22-rdf-syntax-ns#" xmlns:sodipodi="http://sodipodi.sourceforge.net/DTD/sodipodi-0.dtd" xmlns:svg="http://www.w3.org/2000/svg"
	xmlns="http://www.w3.org/2000/svg" xmlns:xlink="http://www.w3.org/1999/xlink" x="0px" y="0px" viewBox="0 0 800 232.167"
	enable-background="new 0 0 800 232.167" xml:space="preserve" width="105" height="31">
	<sodipodi:namedview  bordercolor="#666666" borderopacity="1" fit-margin-bottom="0" fit-margin-left="0" fit-margin-right="0" fit-margin-top="0" gridtolerance="10" guidetolerance="10" id="namedview6700" inkscape:current-layer="svg8159" inkscape:cx="564.20323" inkscape:cy="6.4581045" inkscape:pageopacity="0" inkscape:pageshadow="2" inkscape:window-height="705" inkscape:window-maximized="1" inkscape:window-width="1366" inkscape:window-x="-8" inkscape:window-y="-8" inkscape:zoom="0.77432601" objecttolerance="10" pagecolor="#ffffff" showgrid="false">
	</sodipodi:namedview>
	<path id="path7291" inkscape:connector-curvature="0" fill="#008AD5" d="M184.78,35.001l-44.025,88.666l77.509,89.833
		L74.408,229.831l223.224,2.336L184.78,35.001L184.78,35.001z"/>
		<path id="path7293" inkscape:connector-curvature="0" fill="#008AD5" d="M176.098,0L75.029,84.584L0,211.167l63.867-6.418L176.098,0
			z"/>
			<path id="text7295" inkscape:connector-curvature="0" fill="#008AD5" d="M382.005,89.522l-48.343,118.541h16.437l12.57-33.232
				h53.438l13.36,33.232h16.347L397.296,89.522H382.005L382.005,89.522z M389.211,103.904h0.35c0.645,3.637,1.289,6.284,1.934,7.937
				l19.776,50.509h-43.682l19.601-50.509C387.952,109.913,388.625,107.266,389.211,103.904L389.211,103.904z M762.996,121.431
				c-11.778,0-21.651,4.16-29.619,12.481c-7.91,8.267-11.864,18.987-11.864,32.159c0,13.943,3.633,24.77,10.899,32.486
				c7.266,7.66,17.254,11.491,29.97,11.491c13.008,0,23.468-2.699,31.378-8.1v-12.731c-8.496,6.283-17.811,9.422-27.948,9.422
				c-9.024,0-16.113-2.563-21.27-7.688c-5.156-5.125-7.853-12.4-8.087-21.823H800v-7.109c0-12.73-3.223-22.676-9.668-29.841
				C783.887,125.013,774.774,121.431,762.996,121.431L762.996,121.431z M698.599,121.927c-5.215,0-9.932,1.681-14.151,5.043
				c-4.219,3.307-7.352,7.934-9.403,13.886h-0.353v-17.442h-14.413v84.648h14.413v-43.15c0-9.424,2.052-16.864,6.154-22.32
				c4.16-5.456,9.316-8.184,15.469-8.184c4.746,0,8.379,0.909,10.899,2.727v-14.053C705.221,122.311,702.349,121.927,698.599,121.927z
				M460.466,123.414v11.573h48.253l-53.263,68.861v4.214h73.917V196.49h-52.735l53.263-69.19v-3.885L460.466,123.414L460.466,123.414z
				M551.581,123.414v50.591c0,24.028,10.725,36.041,32.171,36.041c12.539,0,21.797-5.125,27.773-15.376h0.35v13.392h14.416v-84.648
				h-14.416v48.772c0,7.881-2.283,14.274-6.854,19.178c-4.512,4.85-10.284,7.274-17.315,7.274c-14.532,0-21.797-8.926-21.797-26.781
				v-48.443L551.581,123.414L551.581,123.414z M762.734,132.839c7.031,0,12.511,2.176,16.437,6.53
				c3.984,4.354,6.005,10.442,6.063,18.268h-48.605c1.113-7.385,4.044-13.364,8.79-17.938
				C750.165,135.124,755.937,132.839,762.734,132.839z"/>
			</svg>
