<?xml version="1.0" encoding="utf-8"?>
<!-- Generator: Adobe Illustrator 24.0.2, SVG Export Plug-In . SVG Version: 6.00 Build 0)  -->
<svg version="1.1" id="Layer_1" xmlns="http://www.w3.org/2000/svg" xmlns:xlink="http://www.w3.org/1999/xlink" x="0px" y="0px"
	viewBox="0 0 511.226 179.651" enable-background="new 0 0 511.226 179.651" xml:space="preserve" height="36" width="100">
	<g>
		<path fill="#CC0000" d="M219.115,150.634c0,0,22.569-1.935,22.569-31.081s-27.341-31.855-27.341-31.855h-49.266v91.954h24.762
			v-22.182l21.409,22.182h36.627L219.115,150.634z M209.572,131.805H189.84v-21.022h19.861c0,0,5.546,2.063,5.546,10.446
			S209.572,131.805,209.572,131.805z M302.815,88.343h-25.149c-17.926,0-23.988,16.25-23.988,23.988v67.321h25.149V163.53h23.601
			v16.121h24.375V112.33C326.803,92.727,309.006,88.343,302.815,88.343z M302.428,137.479h-23.73v-22.311c0,0,0-5.03,7.867-5.03
			h8.641c6.964,0,7.093,5.03,7.093,5.03v22.311H302.428z M338.281,88.343h26.18v91.309h-26.18V88.343z M401.217,156.05V88.343
			h-26.051v67.708v23.601h26.051h35.208V156.05H401.217z M445.066,156.308v23.343h42.172c8.641,0,23.472-6.319,23.988-23.988v-9.028
			c0-15.089-12.381-23.988-23.988-23.988h-21.022v-10.833h41.656V88.343h-39.98c-10.317,0-24.117,8.512-24.117,24.375v8.125
			c0,15.863,13.671,23.988,24.117,23.988c29.018,0.129-6.964,0,19.861,0v11.349L445.066,156.308z"/>
			<path fill="#CC0000" d="M9.028,179.522h101.884c0,0-19.474-88.858,45.01-124.84c14.057-6.835,58.809-32.371,132.062,21.795
				c2.321-1.935,4.514-3.482,4.514-3.482S225.435,6.061,150.763,13.542c-37.529,3.353-83.7,37.529-110.783,82.668
				S9.028,179.522,9.028,179.522z M221.308,20.764l0.516-8.641c-1.161-0.645-4.385-2.192-12.51-4.514l-0.516,8.512
				C213.054,17.54,217.181,19.087,221.308,20.764z M209.056,48.105l-0.516,8.125c4.256,0.129,8.512,0.645,12.768,1.548l0.516-7.996
				C217.439,48.879,213.183,48.363,209.056,48.105z M161.338,7.867h1.29L160.048,0c-3.998,0-8.125,0.258-12.381,0.774l2.45,7.609
				C153.858,7.996,157.598,7.867,161.338,7.867z M167.528,55.327l2.966,8.899c3.74-1.806,7.48-3.353,11.22-4.514l-2.837-8.512
				C174.493,52.49,170.753,53.908,167.528,55.327z M108.977,21.409l-5.804-8.899c-3.224,1.677-6.577,3.482-10.059,5.546l5.932,9.028
				C102.4,25.02,105.624,23.085,108.977,21.409z M135.416,79.444l6.19,9.286c2.192-3.224,4.772-6.19,7.609-9.157l-5.804-8.77
				C140.445,73.511,137.737,76.478,135.416,79.444z M116.715,120.971l10.446,8.254c0.516-5.03,1.419-10.059,2.708-15.089l-9.286-7.351
				C118.908,111.557,117.747,116.328,116.715,120.971z M60.228,59.712l-9.157-7.996c-3.353,3.224-6.577,6.448-9.544,9.673l9.93,8.512
				C54.166,66.418,57.132,62.936,60.228,59.712z M21.28,117.36l-14.831-5.417C3.998,117.489,1.29,123.938,0,127.42l14.831,5.417
				C16.508,128.451,19.216,122.132,21.28,117.36z M114.781,153.729c0.258,6.835,0.903,12.381,1.548,16.25l15.476,5.546
				c-1.161-5.03-2.321-10.704-3.095-16.766L114.781,153.729z"/>
			</g>
		</svg>
