<svg version="1.1" id="Layer_1" xmlns="http://www.w3.org/2000/svg" xmlns:xlink="http://www.w3.org/1999/xlink" x="0px" y="0px" viewBox="0 0 105 36"
	 style="enable-background:new 0 0 105 36;" xml:space="preserve" width="105" height="36">
<style type="text/css">
	.st0{fill:#01D8F8;}
</style>
	<g>
		<g>
			<path class="st0" d="M33.2,11.7c-0.4-0.1-0.9-0.3-1.3-0.4c0.1-0.3,0.1-0.6,0.2-0.9c1-4.8,0.3-8.6-1.9-9.9c-2.1-1.2-5.6,0.1-9,3.1
				c-0.3,0.3-0.7,0.6-1,0.9c-0.2-0.2-0.4-0.4-0.7-0.6c-3.6-3.2-7.3-4.6-9.5-3.3C7.9,1.7,7.3,5.4,8.2,9.9c0.1,0.4,0.2,0.9,0.3,1.3
				c-0.5,0.1-1,0.3-1.5,0.5c-4.3,1.5-7,3.8-7,6.3c0,2.5,2.9,5,7.4,6.5c0.4,0.1,0.7,0.2,1.1,0.3c-0.1,0.5-0.2,1-0.3,1.4
				c-0.8,4.5-0.2,8,1.9,9.2c2.2,1.3,5.8,0,9.4-3.1c0.3-0.2,0.6-0.5,0.8-0.8c0.4,0.4,0.7,0.7,1.1,1c3.4,3,6.8,4.1,8.9,2.9
				c2.2-1.3,2.9-5.1,2-9.7c-0.1-0.4-0.2-0.7-0.2-1.1c0.3-0.1,0.5-0.2,0.8-0.2c4.6-1.5,7.6-4,7.6-6.6C40.4,15.5,37.6,13.2,33.2,11.7z
				 M22.4,4.9c3-2.6,5.8-3.6,7-2.9c1.4,0.8,1.9,3.9,1,8.1c-0.1,0.3-0.1,0.5-0.2,0.8c-1.7-0.4-3.5-0.7-5.4-0.9
				c-1.1-1.6-2.3-3-3.4-4.3C21.7,5.4,22.1,5.1,22.4,4.9z M12.8,18c0.5-1.1,1.1-2.2,1.7-3.3l0,0c0.6-1.1,1.3-2.1,2-3.1
				c1.2-0.1,2.4-0.1,3.7-0.1c1.3,0,2.5,0,3.7,0.1c0.7,1,1.3,2,1.9,3.1c0.6,1.1,1.2,2.2,1.7,3.2c-0.5,1.1-1.1,2.2-1.7,3.3
				c-0.6,1.1-1.3,2.1-1.9,3.1c-1.2,0.1-2.4,0.1-3.7,0.1c-1.3,0-2.5,0-3.7-0.1c-0.7-1-1.3-2-2-3.1h0C13.9,20.2,13.4,19.1,12.8,18z
				 M11.9,20c0.4,0.7,0.7,1.4,1.1,2.1c0.4,0.7,0.8,1.4,1.3,2.1c-1.3-0.1-2.6-0.3-3.7-0.6C11,22.5,11.4,21.3,11.9,20z M11.9,16
				c-0.5-1.2-0.9-2.4-1.3-3.5c1.2-0.3,2.4-0.5,3.7-0.6c-0.4,0.7-0.8,1.3-1.2,2C12.7,14.6,12.3,15.3,11.9,16z M27.3,22.1
				c0.4-0.7,0.8-1.4,1.2-2.1c0.5,1.2,1,2.4,1.4,3.6c-1.2,0.3-2.4,0.5-3.8,0.6C26.5,23.5,26.9,22.8,27.3,22.1z M28.5,16
				c-0.4-0.7-0.8-1.4-1.2-2.1c-0.4-0.7-0.8-1.4-1.2-2c1.3,0.2,2.5,0.4,3.7,0.6C29.4,13.6,29,14.8,28.5,16z M20.2,7
				c0.8,0.9,1.6,1.8,2.4,2.9c-0.8,0-1.6-0.1-2.4-0.1c-0.8,0-1.6,0-2.4,0.1C18.6,8.8,19.4,7.8,20.2,7z M10.9,2
				c1.4-0.8,4.3,0.3,7.5,3.1c0.2,0.2,0.4,0.4,0.6,0.6C17.8,7,16.7,8.4,15.6,10c-1.9,0.2-3.7,0.5-5.4,0.8C10.1,10.4,10,10,9.9,9.6
				C9.1,5.7,9.6,2.8,10.9,2z M8.9,23.2c-0.3-0.1-0.7-0.2-1-0.3c-2-0.7-3.6-1.5-4.7-2.5c-1-0.9-1.5-1.7-1.5-2.4
				c0-1.5,2.2-3.3,5.9-4.6C8,13.2,8.5,13,9,12.9c0.5,1.6,1.2,3.4,2,5.1C10.1,19.8,9.5,21.5,8.9,23.2z M18.3,31.1
				c-1.6,1.4-3.1,2.3-4.5,2.8c-1.2,0.4-2.2,0.5-2.8,0.1c-1.3-0.7-1.8-3.6-1.1-7.4c0.1-0.4,0.2-0.9,0.3-1.3c1.7,0.4,3.5,0.6,5.4,0.8
				c1.1,1.6,2.3,3,3.5,4.3C18.8,30.6,18.6,30.8,18.3,31.1z M20.3,29.1c-0.8-0.9-1.6-1.9-2.4-2.9c0.8,0,1.6,0,2.4,0
				c0.8,0,1.6,0,2.4-0.1C21.9,27.3,21.1,28.2,20.3,29.1z M30.8,31.5c-0.2,1.3-0.7,2.2-1.3,2.5c-1.3,0.7-4-0.2-6.9-2.7
				c-0.3-0.3-0.7-0.6-1-0.9c1.1-1.2,2.3-2.7,3.4-4.3c2-0.2,3.8-0.5,5.5-0.8c0.1,0.3,0.2,0.7,0.2,1C31,28.2,31,30.1,30.8,31.5z
				 M32.2,22.9C32,23,31.8,23,31.5,23.1c-0.5-1.6-1.2-3.3-2-5.1c0.8-1.7,1.5-3.4,2-5c0.4,0.1,0.8,0.2,1.2,0.4c3.7,1.3,6,3.2,6,4.7
				C38.7,19.5,36.2,21.6,32.2,22.9z"/>
			<path class="st0" d="M20.2,14.4c2,0,3.6,1.6,3.6,3.6c0,2-1.6,3.6-3.6,3.6S16.6,20,16.6,18C16.6,16,18.2,14.4,20.2,14.4"/>
			<g>
				<path class="st0" d="M47.1,19.3v7.2h-2V9.2h4.7c2.1,0,3.7,0.4,4.7,1.2c1,0.8,1.5,2,1.5,3.7c0,2.3-1.2,3.8-3.5,4.6l4.7,7.8h-2.4
					l-4.2-7.2L47.1,19.3L47.1,19.3z M47.1,17.6h2.8c1.4,0,2.5-0.3,3.1-0.8c0.7-0.6,1-1.4,1-2.5c0-1.1-0.3-2-1-2.5
					c-0.7-0.5-1.8-0.8-3.2-0.8h-2.6L47.1,17.6L47.1,17.6z"/>
				<path class="st0" d="M65.2,26.8c-1.9,0-3.4-0.6-4.5-1.8c-1.1-1.2-1.7-2.8-1.7-4.9c0-2.1,0.5-3.8,1.5-5c1-1.2,2.4-1.8,4.1-1.8
					c1.6,0,2.9,0.5,3.9,1.6c0.9,1.1,1.4,2.5,1.4,4.2v1.2H61c0,1.5,0.4,2.7,1.2,3.5c0.7,0.8,1.8,1.2,3.1,1.2c1.4,0,2.8-0.3,4.1-0.9
					v1.8c-0.7,0.3-1.4,0.5-2,0.6C66.8,26.7,66.1,26.8,65.2,26.8z M64.7,15c-1,0-1.9,0.3-2.5,1c-0.6,0.7-1,1.6-1.1,2.8h6.8
					c0-1.2-0.3-2.2-0.8-2.8C66.5,15.3,65.7,15,64.7,15z"/>
				<path class="st0" d="M81.3,26.5l-0.4-1.8h-0.1c-0.6,0.8-1.3,1.4-1.9,1.7c-0.6,0.3-1.4,0.4-2.4,0.4c-1.3,0-2.3-0.3-3-1
					c-0.7-0.7-1.1-1.6-1.1-2.8c0-2.6,2.1-4,6.3-4.1l2.2-0.1V18c0-1-0.2-1.8-0.7-2.3c-0.4-0.5-1.1-0.7-2.1-0.7c-1.1,0-2.3,0.3-3.7,1
					l-0.6-1.5c0.6-0.3,1.3-0.6,2.1-0.8c0.8-0.2,1.5-0.3,2.3-0.3c1.5,0,2.7,0.3,3.4,1c0.7,0.7,1.1,1.8,1.1,3.3v8.9L81.3,26.5
					L81.3,26.5z M76.9,25.1c1.2,0,2.2-0.3,2.9-1c0.7-0.7,1-1.6,1-2.8v-1.2l-2,0.1c-1.6,0.1-2.7,0.3-3.4,0.7c-0.7,0.4-1,1.1-1,2
					c0,0.7,0.2,1.3,0.6,1.6C75.5,25,76.1,25.1,76.9,25.1z"/>
				<path class="st0" d="M92,26.8c-1.9,0-3.3-0.6-4.4-1.7c-1-1.2-1.5-2.8-1.5-4.9c0-2.2,0.5-3.8,1.6-5c1-1.2,2.5-1.8,4.5-1.8
					c0.6,0,1.2,0.1,1.9,0.2c0.6,0.1,1.1,0.3,1.5,0.5l-0.6,1.7c-0.4-0.2-0.9-0.3-1.4-0.4c-0.5-0.1-1-0.2-1.4-0.2c-2.6,0-4,1.7-4,5
					c0,1.6,0.3,2.8,1,3.7c0.6,0.9,1.6,1.3,2.9,1.3c1.1,0,2.2-0.2,3.3-0.7v1.7C94.4,26.5,93.3,26.8,92,26.8z"/>
				<path class="st0" d="M102.5,25.1c0.3,0,0.7,0,1-0.1c0.3-0.1,0.6-0.1,0.8-0.2v1.5c-0.2,0.1-0.5,0.2-0.9,0.3
					c-0.4,0.1-0.8,0.1-1.1,0.1c-2.5,0-3.8-1.3-3.8-4v-7.7h-1.9v-0.9l1.9-0.8l0.8-2.8h1.1v3h3.8v1.5h-3.8v7.6c0,0.8,0.2,1.4,0.6,1.8
					C101.4,24.9,101.9,25.1,102.5,25.1z"/>
			</g>
		</g>
	</g>
</svg>
