<?xml version="1.0" encoding="utf-8"?>
<!-- Generator: Adobe Illustrator 24.1.0, SVG Export Plug-In . SVG Version: 6.00 Build 0)  -->
<svg version="1.1" id="Layer_1" xmlns="http://www.w3.org/2000/svg" xmlns:xlink="http://www.w3.org/1999/xlink" x="0px" y="0px"
	 viewBox="0 0 751.6 281.4" style="enable-background:new 0 0 751.6 281.4;" xml:space="preserve">
<style type="text/css">
	.st0{fill-rule:evenodd;clip-rule:evenodd;fill:#FACACC;}
	.st1{fill-rule:evenodd;clip-rule:evenodd;fill:none;stroke:#FACACC;stroke-width:0.9;stroke-miterlimit:3.8637;}
	.st2{fill-rule:evenodd;clip-rule:evenodd;fill:#FFFFFF;}
	.st3{fill-rule:evenodd;clip-rule:evenodd;fill:#92D7E7;}
	.st4{fill-rule:evenodd;clip-rule:evenodd;fill:none;stroke:#92D7E7;stroke-width:0.9;stroke-miterlimit:3.8637;}
	.st5{fill-rule:evenodd;clip-rule:evenodd;fill:#800059;}
	.st6{fill-rule:evenodd;clip-rule:evenodd;fill:none;stroke:#800059;stroke-width:0.9;stroke-miterlimit:3.8637;}
	.st7{fill-rule:evenodd;clip-rule:evenodd;fill:none;stroke:#FFFFFF;stroke-width:0.9;stroke-miterlimit:3.8637;}
	.st8{fill-rule:evenodd;clip-rule:evenodd;fill:#B1C0C9;}
	.st9{fill-rule:evenodd;clip-rule:evenodd;fill:none;stroke:#B1C0C9;stroke-width:0.9;stroke-miterlimit:3.8637;}
	.st10{fill-rule:evenodd;clip-rule:evenodd;fill:#E2E3E4;}
	.st11{fill-rule:evenodd;clip-rule:evenodd;fill:none;stroke:#E2E3E4;stroke-width:0.9;stroke-miterlimit:3.8637;}
	.st12{fill-rule:evenodd;clip-rule:evenodd;fill:#F6EC29;}
	.st13{fill-rule:evenodd;clip-rule:evenodd;fill:none;stroke:#F6EC29;stroke-width:0.9;stroke-miterlimit:3.8637;}
	.st14{fill-rule:evenodd;clip-rule:evenodd;fill:#D5DF24;}
	.st15{fill-rule:evenodd;clip-rule:evenodd;fill:none;stroke:#D5DF24;stroke-width:0.9;stroke-miterlimit:3.8637;}
	.st16{fill-rule:evenodd;clip-rule:evenodd;fill:#78411A;}
	.st17{fill-rule:evenodd;clip-rule:evenodd;fill:none;stroke:#78411A;stroke-width:0.9;stroke-miterlimit:3.8637;}
	.st18{fill-rule:evenodd;clip-rule:evenodd;fill:#8EA3AE;}
	.st19{fill-rule:evenodd;clip-rule:evenodd;fill:none;stroke:#8EA3AE;stroke-width:0.9;stroke-miterlimit:3.8637;}
	.st20{fill-rule:evenodd;clip-rule:evenodd;fill:#C61D23;}
	.st21{fill-rule:evenodd;clip-rule:evenodd;fill:none;stroke:#C61D23;stroke-width:0.9;stroke-miterlimit:3.8637;}
	.st22{fill-rule:evenodd;clip-rule:evenodd;fill:#ED6A56;}
	.st23{fill-rule:evenodd;clip-rule:evenodd;fill:none;stroke:#ED6A56;stroke-width:0.9;stroke-miterlimit:3.8637;}
	.st24{fill-rule:evenodd;clip-rule:evenodd;fill:#C8652D;}
	.st25{fill-rule:evenodd;clip-rule:evenodd;fill:none;stroke:#C8652D;stroke-width:0.9;stroke-miterlimit:3.8637;}
	.st26{fill-rule:evenodd;clip-rule:evenodd;fill:#EE2924;}
	.st27{fill-rule:evenodd;clip-rule:evenodd;fill:none;stroke:#EE2924;stroke-width:0.9;stroke-miterlimit:3.8637;}
	.st28{fill-rule:evenodd;clip-rule:evenodd;fill:#C62D2C;}
	.st29{fill-rule:evenodd;clip-rule:evenodd;fill:none;stroke:#C62D2C;stroke-width:0.9;stroke-miterlimit:3.8637;}
	.st30{fill-rule:evenodd;clip-rule:evenodd;fill:#F9E3B1;}
	.st31{fill-rule:evenodd;clip-rule:evenodd;fill:none;stroke:#F9E3B1;stroke-width:0.9;stroke-miterlimit:3.8637;}
	.st32{fill-rule:evenodd;clip-rule:evenodd;fill:#D7861D;}
	.st33{fill-rule:evenodd;clip-rule:evenodd;fill:none;stroke:#D7861D;stroke-width:0.9;stroke-miterlimit:3.8637;}
	.st34{fill-rule:evenodd;clip-rule:evenodd;fill:#F4B699;}
	.st35{fill-rule:evenodd;clip-rule:evenodd;fill:none;stroke:#F4B699;stroke-width:0.9;stroke-miterlimit:3.8637;}
	.st36{fill-rule:evenodd;clip-rule:evenodd;fill:#F6A2B7;}
	.st37{fill-rule:evenodd;clip-rule:evenodd;fill:none;stroke:#F6A2B7;stroke-width:0.9;stroke-miterlimit:3.8637;}
	.st38{fill-rule:evenodd;clip-rule:evenodd;fill:#FAC8D3;}
	.st39{fill-rule:evenodd;clip-rule:evenodd;fill:none;stroke:#FAC8D3;stroke-width:0.9;stroke-miterlimit:3.8637;}
	.st40{fill-rule:evenodd;clip-rule:evenodd;fill:#8E81B4;}
	.st41{fill-rule:evenodd;clip-rule:evenodd;fill:none;stroke:#8E81B4;stroke-width:0.9;stroke-miterlimit:3.8637;}
	.st42{fill-rule:evenodd;clip-rule:evenodd;fill:#816F88;}
	.st43{fill-rule:evenodd;clip-rule:evenodd;fill:none;stroke:#816F88;stroke-width:0.9;stroke-miterlimit:3.8637;}
	.st44{fill-rule:evenodd;clip-rule:evenodd;fill:#5571B6;}
	.st45{fill-rule:evenodd;clip-rule:evenodd;fill:none;stroke:#5571B6;stroke-width:0.9;stroke-miterlimit:3.8637;}
	.st46{fill-rule:evenodd;clip-rule:evenodd;fill:#869ACF;}
	.st47{fill-rule:evenodd;clip-rule:evenodd;fill:none;stroke:#869ACF;stroke-width:0.9;stroke-miterlimit:3.8637;}
	.st48{fill-rule:evenodd;clip-rule:evenodd;fill:#5E62A5;}
	.st49{fill-rule:evenodd;clip-rule:evenodd;fill:none;stroke:#5E62A5;stroke-width:0.9;stroke-miterlimit:3.8637;}
	.st50{fill-rule:evenodd;clip-rule:evenodd;fill:#366EAB;}
	.st51{fill-rule:evenodd;clip-rule:evenodd;fill:none;stroke:#366EAB;stroke-width:0.9;stroke-miterlimit:3.8637;}
	.st52{fill-rule:evenodd;clip-rule:evenodd;fill:#F99D1C;}
	.st53{fill-rule:evenodd;clip-rule:evenodd;fill:none;stroke:#F99D1C;stroke-width:0.9;stroke-miterlimit:3.8637;}
	.st54{fill-rule:evenodd;clip-rule:evenodd;fill:#4C2A08;}
	.st55{fill-rule:evenodd;clip-rule:evenodd;fill:none;stroke:#4C2A08;stroke-width:0.9;stroke-miterlimit:3.8637;}
	.st56{fill-rule:evenodd;clip-rule:evenodd;fill:#A9006F;}
	.st57{fill-rule:evenodd;clip-rule:evenodd;fill:none;stroke:#A9006F;stroke-width:0.9;stroke-miterlimit:3.8637;}
	.st58{fill-rule:evenodd;clip-rule:evenodd;fill:#5A97A7;}
	.st59{fill-rule:evenodd;clip-rule:evenodd;fill:none;stroke:#5A97A7;stroke-width:0.9;stroke-miterlimit:3.8637;}
	.st60{fill-rule:evenodd;clip-rule:evenodd;fill:#009CC9;}
	.st61{fill-rule:evenodd;clip-rule:evenodd;fill:none;stroke:#009CC9;stroke-width:0.9;stroke-miterlimit:3.8637;}
	.st62{fill-rule:evenodd;clip-rule:evenodd;fill:#515254;stroke:#515254;stroke-width:0.9;stroke-miterlimit:3.8637;}
	.st63{fill:#FFFFFF;stroke:#FFFFFF;stroke-width:0.6;stroke-miterlimit:3.8637;}
	.st64{fill:#FFFFFF;}
</style>
<g>
	<g>
		<path class="st0" d="M157.4,1.4c10.6,1.3,20.8,3.7,30.5,7.2l-14,39.1c-6.8-2.4-14-4.1-21.5-4.9L157.4,1.4z"/>
		<path class="st1" d="M157.4,1.4c10.6,1.3,20.8,3.7,30.5,7.2l-14,39.1c-6.8-2.4-14-4.1-21.5-4.9L157.4,1.4z"/>
	</g>
	<path class="st2" d="M187.9,8.6c1.5,0.5,2.9,1.1,4.4,1.7L177,48.9c-1-0.4-2.1-0.8-3.1-1.1L187.9,8.6z"/>
	<g>
		<path class="st3" d="M192.4,10.3c2.2,0.9,4.5,1.8,6.6,2.8l-17.3,37.8c-1.5-0.7-3.1-1.4-4.7-2L192.4,10.3z"/>
		<path class="st4" d="M192.4,10.3c2.2,0.9,4.5,1.8,6.6,2.8l-17.3,37.8c-1.5-0.7-3.1-1.4-4.7-2L192.4,10.3z"/>
	</g>
	<g>
		<path class="st3" d="M199.1,13.1c11.2,5.1,21.5,11.6,30.9,19.4l-26.4,31.9c-6.6-5.4-13.9-10-21.8-13.6L199.1,13.1z"/>
		<path class="st4" d="M199.1,13.1c11.2,5.1,21.5,11.6,30.9,19.4l-26.4,31.9c-6.6-5.4-13.9-10-21.8-13.6L199.1,13.1z"/>
	</g>
	<g>
		<path class="st5" d="M254.9,59.3c1.1,1.5,2.1,3,3.1,4.5l-34.7,22.7c-0.7-1.1-1.4-2.1-2.2-3.2L254.9,59.3z"/>
		<path class="st6" d="M254.9,59.3c1.1,1.5,2.1,3,3.1,4.5l-34.7,22.7c-0.7-1.1-1.4-2.1-2.2-3.2L254.9,59.3z"/>
	</g>
	<g>
		<path class="st2" d="M258.1,63.9c5.5,8.4,10.2,17.5,13.8,27.1l-38.8,14.7c-2.5-6.7-5.8-13.1-9.7-19.1L258.1,63.9z"/>
		<path class="st7" d="M258.1,63.9c5.5,8.4,10.2,17.5,13.8,27.1l-38.8,14.7c-2.5-6.7-5.8-13.1-9.7-19.1L258.1,63.9z"/>
	</g>
	<g>
		<path class="st8" d="M271.9,91c1.6,4.3,3.1,8.7,4.3,13.2L236.1,115c-0.8-3.2-1.8-6.3-3-9.3L271.9,91z"/>
		<path class="st9" d="M271.9,91c1.6,4.3,3.1,8.7,4.3,13.2L236.1,115c-0.8-3.2-1.8-6.3-3-9.3L271.9,91z"/>
	</g>
	<g>
		<path class="st10" d="M280.9,143.3c-0.2,11.4-1.8,22.5-4.6,33.1L236,165.8c2.1-7.6,3.2-15.6,3.4-23.8l0-1.6l41.6-0.2
			C281,141.2,280.9,142.2,280.9,143.3z"/>
		<path class="st11" d="M280.9,143.3c-0.2,11.4-1.8,22.5-4.6,33.1L236,165.8c2.1-7.6,3.2-15.6,3.4-23.8l0-1.6l41.6-0.2
			C281,141.2,280.9,142.2,280.9,143.3z"/>
	</g>
	<g>
		<path class="st12" d="M276.4,176.4c-2,7.8-4.7,15.3-8,22.5l-38.1-17.4c2.4-5,4.3-10.3,5.8-15.7L276.4,176.4z"/>
		<path class="st13" d="M276.4,176.4c-2,7.8-4.7,15.3-8,22.5l-38.1-17.4c2.4-5,4.3-10.3,5.8-15.7L276.4,176.4z"/>
	</g>
	<g>
		<path class="st14" d="M268.3,199c-2.3,5-4.8,9.8-7.6,14.4l-35.9-21.8c2-3.2,3.8-6.6,5.4-10L268.3,199z"/>
		<path class="st15" d="M268.3,199c-2.3,5-4.8,9.8-7.6,14.4l-35.9-21.8c2-3.2,3.8-6.6,5.4-10L268.3,199z"/>
	</g>
	<g>
		<path class="st16" d="M176.5,276.3c-1.3,0.4-2.6,0.7-4,1l-9.7-41.6c0.9-0.2,1.8-0.4,2.8-0.7L176.5,276.3z"/>
		<path class="st17" d="M176.5,276.3c-1.3,0.4-2.6,0.7-4,1l-9.7-41.6c0.9-0.2,1.8-0.4,2.8-0.7L176.5,276.3z"/>
	</g>
	<g>
		<path class="st18" d="M121.7,279.7c-8.3-1.1-16.3-3-24-5.5l13.2-41c5.3,1.8,10.9,3.1,16.6,3.9L121.7,279.7z"/>
		<path class="st19" d="M121.7,279.7c-8.3-1.1-16.3-3-24-5.5l13.2-41c5.3,1.8,10.9,3.1,16.6,3.9L121.7,279.7z"/>
	</g>
	<g>
		<path class="st20" d="M97.6,274.2c-4.2-1.3-8.3-2.9-12.2-4.6l17-39.7c2.8,1.2,5.6,2.3,8.5,3.2L97.6,274.2z"/>
		<path class="st21" d="M97.6,274.2c-4.2-1.3-8.3-2.9-12.2-4.6l17-39.7c2.8,1.2,5.6,2.3,8.5,3.2L97.6,274.2z"/>
	</g>
	<g>
		<path class="st22" d="M62.1,256.9L86.3,221c5,3.4,10.4,6.4,16.1,8.9l-17,39.7C77.1,266.1,69.4,261.8,62.1,256.9z"/>
		<path class="st23" d="M62.1,256.9L86.3,221c5,3.4,10.4,6.4,16.1,8.9l-17,39.7C77.1,266.1,69.4,261.8,62.1,256.9z"/>
	</g>
	<g>
		<path class="st24" d="M62,256.8c-1.7-1.2-3.4-2.4-5.1-3.6l25.8-34.7c1.1,0.9,2.3,1.7,3.5,2.5L62,256.8z"/>
		<path class="st25" d="M62,256.8c-1.7-1.2-3.4-2.4-5.1-3.6l25.8-34.7c1.1,0.9,2.3,1.7,3.5,2.5L62,256.8z"/>
	</g>
	<g>
		<path class="st14" d="M56.9,253.2c-5.1-3.8-9.9-7.9-14.4-12.3l30.3-30.9c3.1,3.1,6.4,5.9,9.9,8.6L56.9,253.2z"/>
		<path class="st15" d="M56.9,253.2c-5.1-3.8-9.9-7.9-14.4-12.3l30.3-30.9c3.1,3.1,6.4,5.9,9.9,8.6L56.9,253.2z"/>
	</g>
	<g>
		<path class="st26" d="M42.5,240.8c-12.8-12.5-23.2-27.5-30.4-44.1l39.6-17.3c5,11.5,12.2,21.8,21,30.5L42.5,240.8z"/>
		<path class="st27" d="M42.5,240.8c-12.8-12.5-23.2-27.5-30.4-44.1l39.6-17.3c5,11.5,12.2,21.8,21,30.5L42.5,240.8z"/>
	</g>
	<g>
		<path class="st28" d="M12.1,196.6c-0.6-1.3-1.1-2.7-1.7-4l40.2-16c0.4,0.9,0.8,1.9,1.2,2.8L12.1,196.6z"/>
		<path class="st29" d="M12.1,196.6c-0.6-1.3-1.1-2.7-1.7-4l40.2-16c0.4,0.9,0.8,1.9,1.2,2.8L12.1,196.6z"/>
	</g>
	<g>
		<path class="st30" d="M10.4,192.6c-3.1-7.7-5.5-15.8-7.2-24.1l42.3-8.5c1.2,5.7,2.9,11.3,5,16.6L10.4,192.6z"/>
		<path class="st31" d="M10.4,192.6c-3.1-7.7-5.5-15.8-7.2-24.1l42.3-8.5c1.2,5.7,2.9,11.3,5,16.6L10.4,192.6z"/>
	</g>
	<g>
		<path class="st32" d="M0.5,138.1c0.1-5.7,0.5-11.3,1.3-16.8l42.6,5.9c-0.5,3.6-0.8,7.3-0.8,11.1c0,1.5,0,2.9,0,4.4l-43.1,0.9
			C0.4,141.8,0.4,140,0.5,138.1z"/>
		<path class="st33" d="M0.5,138.1c0.1-5.7,0.5-11.3,1.3-16.8l42.6,5.9c-0.5,3.6-0.8,7.3-0.8,11.1c0,1.5,0,2.9,0,4.4l-43.1,0.9
			C0.4,141.8,0.4,140,0.5,138.1z"/>
	</g>
	<g>
		<path class="st26" d="M1.8,121.3c1.2-8.4,3.1-16.6,5.6-24.4l40.7,13.4c-1.7,5.5-3,11.1-3.8,17L1.8,121.3z"/>
		<path class="st27" d="M1.8,121.3c1.2-8.4,3.1-16.6,5.6-24.4l40.7,13.4c-1.7,5.5-3,11.1-3.8,17L1.8,121.3z"/>
	</g>
	<g>
		<path class="st34" d="M17.5,73.6c2-3.6,4.1-7.1,6.4-10.6l35.5,23.7c-1.6,2.4-3,4.9-4.4,7.4L17.5,73.6z"/>
		<path class="st35" d="M17.5,73.6c2-3.6,4.1-7.1,6.4-10.6l35.5,23.7c-1.6,2.4-3,4.9-4.4,7.4L17.5,73.6z"/>
	</g>
	<g>
		<path class="st36" d="M23.9,63c1.7-2.5,3.4-5,5.3-7.4l33.8,25.9c-1.3,1.7-2.5,3.4-3.6,5.2L23.9,63z"/>
		<path class="st37" d="M23.9,63c1.7-2.5,3.4-5,5.3-7.4l33.8,25.9c-1.3,1.7-2.5,3.4-3.6,5.2L23.9,63z"/>
	</g>
	<g>
		<path class="st36" d="M29.2,55.5c7.3-9.5,15.7-18,25.1-25.3l26.1,33.4c-6.5,5.2-12.3,11.2-17.3,17.8L29.2,55.5z"/>
		<path class="st37" d="M29.2,55.5c7.3-9.5,15.7-18,25.1-25.3l26.1,33.4c-6.5,5.2-12.3,11.2-17.3,17.8L29.2,55.5z"/>
	</g>
	<g>
		<path class="st38" d="M54.4,30.2c3.6-2.8,7.3-5.4,11.1-7.9L88.1,58c-2.7,1.7-5.2,3.6-7.7,5.6L54.4,30.2z"/>
		<path class="st39" d="M54.4,30.2c3.6-2.8,7.3-5.4,11.1-7.9L88.1,58c-2.7,1.7-5.2,3.6-7.7,5.6L54.4,30.2z"/>
	</g>
	<g>
		<path class="st40" d="M65.5,22.3c1.6-1,3.1-2,4.7-2.9l21.2,36.6c-1.1,0.7-2.2,1.3-3.3,2L65.5,22.3z"/>
		<path class="st41" d="M65.5,22.3c1.6-1,3.1-2,4.7-2.9l21.2,36.6c-1.1,0.7-2.2,1.3-3.3,2L65.5,22.3z"/>
	</g>
	<g>
		<path class="st42" d="M70.3,19.4c1.6-0.9,3.2-1.8,4.9-2.7L94.9,54c-1.1,0.6-2.3,1.3-3.4,1.9L70.3,19.4z"/>
		<path class="st43" d="M70.3,19.4c1.6-0.9,3.2-1.8,4.9-2.7L94.9,54c-1.1,0.6-2.3,1.3-3.4,1.9L70.3,19.4z"/>
	</g>
	<g>
		<path class="st2" d="M75.2,16.6c3.8-2,7.7-3.9,11.7-5.5L103,50c-2.8,1.2-5.5,2.5-8.1,3.9L75.2,16.6z"/>
		<path class="st7" d="M75.2,16.6c3.8-2,7.7-3.9,11.7-5.5L103,50c-2.8,1.2-5.5,2.5-8.1,3.9L75.2,16.6z"/>
	</g>
	<g>
		<path class="st44" d="M87,11.1c2.2-0.9,4.5-1.8,6.7-2.6l14,39.7c-1.6,0.6-3.1,1.2-4.7,1.9L87,11.1z"/>
		<path class="st45" d="M87,11.1c2.2-0.9,4.5-1.8,6.7-2.6l14,39.7c-1.6,0.6-3.1,1.2-4.7,1.9L87,11.1z"/>
	</g>
	<g>
		<path class="st46" d="M93.8,8.5c9.3-3.3,18.9-5.6,29-6.9l5.3,41.6c-7,1-13.8,2.7-20.2,5L93.8,8.5z"/>
		<path class="st47" d="M93.8,8.5c9.3-3.3,18.9-5.6,29-6.9l5.3,41.6c-7,1-13.8,2.7-20.2,5L93.8,8.5z"/>
	</g>
	<g>
		<path class="st40" d="M157.3,1.4l-5,41.4c-3-0.3-6-0.5-9.1-0.6c-1.2,0-2.4,0-3.6,0l-0.4-41.8c1.3,0,2.7,0,4.1,0
			C148,0.6,152.7,0.9,157.3,1.4z"/>
		<path class="st41" d="M157.3,1.4l-5,41.4c-3-0.3-6-0.5-9.1-0.6c-1.2,0-2.4,0-3.6,0l-0.4-41.8c1.3,0,2.7,0,4.1,0
			C148,0.6,152.7,0.9,157.3,1.4z"/>
	</g>
	<g>
		<path class="st48" d="M139.2,0.5l0.4,41.8c-1.5,0-3.1,0.1-4.6,0.2l-2.4-41.8C134.8,0.6,137,0.5,139.2,0.5z"/>
		<path class="st49" d="M139.2,0.5l0.4,41.8c-1.5,0-3.1,0.1-4.6,0.2l-2.4-41.8C134.8,0.6,137,0.5,139.2,0.5z"/>
	</g>
	<g>
		<path class="st44" d="M122.8,1.6c2-0.3,4-0.5,6-0.6l3.5,41.7c-1.4,0.1-2.8,0.3-4.2,0.5L122.8,1.6z"/>
		<path class="st45" d="M122.8,1.6c2-0.3,4-0.5,6-0.6l3.5,41.7c-1.4,0.1-2.8,0.3-4.2,0.5L122.8,1.6z"/>
	</g>
	<g>
		<path class="st50" d="M132.6,0.7l2.4,41.8c-0.9,0.1-1.8,0.1-2.6,0.2l-3.5-41.7C130,0.8,131.3,0.8,132.6,0.7z"/>
		<path class="st51" d="M132.6,0.7l2.4,41.8c-0.9,0.1-1.8,0.1-2.6,0.2l-3.5-41.7C130,0.8,131.3,0.8,132.6,0.7z"/>
	</g>
	<g>
		<path class="st30" d="M17.5,73.6L55,94.1c-0.3,0.5-0.5,1-0.8,1.5L16.3,75.8C16.7,75.1,17.1,74.3,17.5,73.6z"/>
		<path class="st31" d="M17.5,73.6L55,94.1c-0.3,0.5-0.5,1-0.8,1.5L16.3,75.8C16.7,75.1,17.1,74.3,17.5,73.6z"/>
	</g>
	<g>
		<path class="st52" d="M7.4,96.9c0.8-2.4,1.6-4.7,2.5-7l39.9,15.6c-0.6,1.6-1.2,3.2-1.7,4.9L7.4,96.9z"/>
		<path class="st53" d="M7.4,96.9c0.8-2.4,1.6-4.7,2.5-7l39.9,15.6c-0.6,1.6-1.2,3.2-1.7,4.9L7.4,96.9z"/>
	</g>
	<g>
		<path class="st32" d="M49.9,105.3L10,89.8c1.9-4.8,4-9.4,6.3-13.9l37.9,19.8C52.6,98.8,51.2,102,49.9,105.3z"/>
		<path class="st33" d="M49.9,105.3L10,89.8c1.9-4.8,4-9.4,6.3-13.9l37.9,19.8C52.6,98.8,51.2,102,49.9,105.3z"/>
	</g>
	<g>
		<path class="st54" d="M121.8,279.7l5.8-42.6c4,0.6,8,0.9,12.1,1c3.2,0.1,6.3,0,9.5-0.3l3.8,42.7c-4.9,0.4-9.8,0.6-14.8,0.5
			C132.6,280.8,127.1,280.4,121.8,279.7z"/>
		<path class="st55" d="M121.8,279.7l5.8-42.6c4,0.6,8,0.9,12.1,1c3.2,0.1,6.3,0,9.5-0.3l3.8,42.7c-4.9,0.4-9.8,0.6-14.8,0.5
			C132.6,280.8,127.1,280.4,121.8,279.7z"/>
	</g>
	<g>
		<path class="st16" d="M172.5,277.3c-6.4,1.5-12.9,2.5-19.6,3.1l-3.8-42.7c4.6-0.4,9.2-1,13.6-2L172.5,277.3z"/>
		<path class="st17" d="M172.5,277.3c-6.4,1.5-12.9,2.5-19.6,3.1l-3.8-42.7c4.6-0.4,9.2-1,13.6-2L172.5,277.3z"/>
	</g>
	<g>
		<path class="st3" d="M230,32.5c5,4.1,9.7,8.6,14.1,13.4l-30.6,28c-3.1-3.4-6.4-6.5-10-9.4L230,32.5z"/>
		<path class="st4" d="M230,32.5c5,4.1,9.7,8.6,14.1,13.4l-30.6,28c-3.1-3.4-6.4-6.5-10-9.4L230,32.5z"/>
	</g>
	<g>
		<path class="st56" d="M254.9,59.3l-33.8,24c-2.3-3.3-4.9-6.4-7.6-9.4l30.6-28C248,50.2,251.6,54.6,254.9,59.3z"/>
		<path class="st57" d="M254.9,59.3l-33.8,24c-2.3-3.3-4.9-6.4-7.6-9.4l30.6-28C248,50.2,251.6,54.6,254.9,59.3z"/>
	</g>
	<g>
		<path class="st2" d="M3.2,168.4c-0.8-4-1.4-8-1.9-12.1l42.9-4.9c0.3,2.8,0.8,5.6,1.3,8.4L3.2,168.4z"/>
		<path class="st7" d="M3.2,168.4c-0.8-4-1.4-8-1.9-12.1l42.9-4.9c0.3,2.8,0.8,5.6,1.3,8.4L3.2,168.4z"/>
	</g>
	<g>
		<path class="st52" d="M0.5,143.7l43.1-0.9c0.1,2.9,0.3,5.8,0.6,8.7l-42.9,4.8C0.8,152.2,0.6,147.9,0.5,143.7z"/>
		<path class="st53" d="M0.5,143.7l43.1-0.9c0.1,2.9,0.3,5.8,0.6,8.7l-42.9,4.8C0.8,152.2,0.6,147.9,0.5,143.7z"/>
	</g>
	<g>
		<path class="st12" d="M260.7,213.4c-4.9,8.1-10.6,15.6-17,22.5l-31-28.6c4.5-4.8,8.5-10,12-15.6L260.7,213.4z"/>
		<path class="st13" d="M260.7,213.4c-4.9,8.1-10.6,15.6-17,22.5l-31-28.6c4.5-4.8,8.5-10,12-15.6L260.7,213.4z"/>
	</g>
	<g>
		<path class="st10" d="M176.6,276.3l-11-41.3c18.3-4.6,34.5-14.4,47-27.7l31,28.6C225.8,255.2,202.7,269.4,176.6,276.3z"/>
		<path class="st11" d="M176.6,276.3l-11-41.3c18.3-4.6,34.5-14.4,47-27.7l31,28.6C225.8,255.2,202.7,269.4,176.6,276.3z"/>
	</g>
	<g>
		<path class="st58" d="M238.6,127.7l41.2-5.5c0.8,5.9,1.2,11.8,1.2,17.9l-41.6,0.2C239.4,136,239.1,131.8,238.6,127.7z"/>
		<path class="st59" d="M238.6,127.7l41.2-5.5c0.8,5.9,1.2,11.8,1.2,17.9l-41.6,0.2C239.4,136,239.1,131.8,238.6,127.7z"/>
	</g>
	<g>
		<path class="st60" d="M276.2,104.3c1.6,5.8,2.8,11.8,3.6,17.9l-41.2,5.5c-0.5-4.3-1.4-8.5-2.5-12.6L276.2,104.3z"/>
		<path class="st61" d="M276.2,104.3c1.6,5.8,2.8,11.8,3.6,17.9l-41.2,5.5c-0.5-4.3-1.4-8.5-2.5-12.6L276.2,104.3z"/>
	</g>
</g>
<ellipse transform="matrix(0.7071 -0.7071 0.7071 0.7071 -57.7472 140.907)" class="st62" cx="141.2" cy="140.2" rx="97.5" ry="97.5"/>
<g>
	<path class="st63" d="M100.6,140.9c-2.1,0-3.6-1.1-3.6-3.4c0-2.4,1.5-3.4,3.6-3.4H113c3.8,0,5.4,1.4,5.4,6
		c0,14.4-5.2,28.7-25.5,28.7c-17.2,0-26.2-14.9-26.2-30.4c0-15.5,8.6-30.4,27.3-30.4c12.3,0,20.5,6.4,20.5,9.6
		c0,1.9-1.4,3.5-3.5,3.5c-3.7,0-6.7-6.7-17.5-6.7c-13.4,0-18.9,12.6-18.9,24c0,11.4,5.3,24,19.2,24c11.6,0,17.2-9.9,17.2-18v-3.5
		H100.6z"/>
	<path class="st63" d="M134,161.4h17.8c2.1,0,3.6,1.1,3.6,3.4c0,2.4-1.5,3.4-3.6,3.4h-21.3c-2.8,0-3.9-1.8-3.9-4v-51.7
		c0-2.3,1.2-4,3.9-4h21.3c2.1,0,3.6,1.1,3.6,3.4c0,2.4-1.5,3.4-3.6,3.4H134V135h16.2c2.1,0,3.6,1.1,3.6,3.4c0,2.4-1.5,3.4-3.6,3.4
		H134V161.4z"/>
	<path class="st63" d="M173,164.9c0,2.4-1.4,3.9-3.7,3.9c-2.3,0-3.7-1.5-3.7-3.9v-52.5c0-2.9,1-4.4,3.4-4.4c2.2,0,3.2,0.9,5.2,3.9
		l30.2,43.4h0.2V112c0-2.4,1.4-3.9,3.7-3.9c2.3,0,3.7,1.5,3.7,3.9v52.5c0,2.9-1,4.4-3.4,4.4c-2.2,0-3.2-0.9-5.2-3.9l-30.2-43.4H173
		V164.9z"/>
</g>
<g>
	<path class="st64" d="M322.5,94.7c-1.3,0-2.2-0.7-2.2-2.1c0-1.5,0.9-2.1,2.2-2.1h7.7c2.3,0,3.3,0.9,3.3,3.7
		c0,8.9-3.2,17.8-15.8,17.8c-10.7,0-16.2-9.2-16.2-18.8c0-9.6,5.3-18.8,16.9-18.8c7.6,0,12.7,4,12.7,5.9c0,1.2-0.9,2.2-2.2,2.2
		c-2.3,0-4.2-4.2-10.8-4.2c-8.3,0-11.7,7.8-11.7,14.9c0,7.1,3.3,14.9,11.9,14.9c7.2,0,10.7-6.1,10.7-11.1v-2.2H322.5z"/>
	<path class="st64" d="M343.2,107.4h9.8c1.3,0,2.2,0.7,2.2,2.1c0,1.5-0.9,2.1-2.2,2.1h-11.9c-1.7,0-2.4-1.1-2.4-2.5V76.8
		c0-1.5,0.9-2.4,2.3-2.4c1.4,0,2.3,0.9,2.3,2.4V107.4z"/>
	<path class="st64" d="M372.7,74.4c10.6,0,16.2,9.2,16.2,18.8c0,9.6-5.7,18.8-16.2,18.8c-10.6,0-16.2-9.2-16.2-18.8
		C356.4,83.6,362.1,74.4,372.7,74.4z M372.7,108.1c8.3,0,11.3-7.8,11.3-14.9c0-7.1-3-14.9-11.3-14.9c-8.3,0-11.3,7.8-11.3,14.9
		C361.3,100.3,364.3,108.1,372.7,108.1z"/>
	<path class="st64" d="M394.5,77.2c0-1.4,0.7-2.5,2.4-2.5h8.1c6.6,0,10,4.6,10,8.8c0,4.1-2.1,7.2-5.1,8.1v0.1c4.5,0.5,8,4.3,8,9.2
		c0,5.8-4.3,10.8-12.1,10.8H397c-1.7,0-2.4-1.1-2.4-2.5V77.2z M399.1,90.3h5.2c3.9,0,6.1-2.6,6.1-6c0-3.3-1.9-5.7-6-5.7h-5.4V90.3z
		 M399.1,107.7h6.4c4.5,0,7.7-2.8,7.7-6.9c0-3.8-2.8-6.8-7.5-6.8h-6.7V107.7z"/>
	<path class="st64" d="M425.4,110.3c-0.4,1-1,1.7-2.2,1.7c-1.2,0-2.2-0.7-2.2-1.9c0-0.6,0.5-1.8,0.6-2.3l11.5-30.6
		c0.6-1.6,1.5-2.8,3.3-2.8c1.8,0,2.7,1.2,3.3,2.8l11.5,30.6c0.2,0.5,0.6,1.7,0.6,2.3c0,1.2-1,1.9-2.2,1.9c-1.2,0-1.9-0.7-2.2-1.7
		l-2.4-6.7h-17.2L425.4,110.3z M436.5,79.7h-0.1l-7.1,20h14.4L436.5,79.7z"/>
	<path class="st64" d="M460.9,107.4h9.8c1.3,0,2.2,0.7,2.2,2.1c0,1.5-0.9,2.1-2.2,2.1h-11.9c-1.7,0-2.4-1.1-2.4-2.5V76.8
		c0-1.5,0.9-2.4,2.3-2.4s2.3,0.9,2.3,2.4V107.4z"/>
	<path class="st64" d="M307.5,153.4h11c1.3,0,2.2,0.7,2.2,2.1c0,1.5-0.9,2.1-2.2,2.1h-13.2c-1.7,0-2.4-1.1-2.4-2.5v-32
		c0-1.4,0.7-2.5,2.4-2.5h13.2c1.3,0,2.2,0.7,2.2,2.1c0,1.5-0.9,2.1-2.2,2.1h-11V137h10c1.3,0,2.2,0.7,2.2,2.1c0,1.5-0.9,2.1-2.2,2.1
		h-10V153.4z"/>
	<path class="st64" d="M332.4,155.6c0,1.5-0.9,2.4-2.3,2.4c-1.4,0-2.3-0.9-2.3-2.4v-32.5c0-1.8,0.6-2.7,2.1-2.7c1.4,0,2,0.6,3.2,2.4
		l18.7,26.9h0.1v-26.8c0-1.5,0.9-2.4,2.3-2.4c1.4,0,2.3,0.9,2.3,2.4v32.5c0,1.8-0.6,2.7-2.1,2.7c-1.4,0-2-0.6-3.2-2.4l-18.7-26.9
		h-0.1V155.6z"/>
	<path class="st64" d="M370.6,124.9h-6.9c-1.3,0-2.2-0.7-2.2-2.1c0-1.5,0.9-2.1,2.2-2.1h18.4c1.3,0,2.2,0.7,2.2,2.1
		c0,1.5-0.9,2.1-2.2,2.1h-6.9v30.6c0,1.5-0.9,2.4-2.3,2.4c-1.4,0-2.3-0.9-2.3-2.4V124.9z"/>
	<path class="st64" d="M393.9,155.6c0,1.5-0.9,2.4-2.3,2.4s-2.3-0.9-2.3-2.4v-32.4c0-1.4,0.7-2.5,2.4-2.5h8.5c5.8,0,11.3,4,11.3,10
		c0,7.5-4.6,10.3-10.1,10.5l-2,0.1l11.8,12.9c0.6,0.7,0.9,1.2,0.9,2.1c0,1-0.9,1.8-2.1,1.8c-0.9,0-1.6-0.5-2.1-1l-14.1-15.5V155.6z
		 M393.9,137.8h6.2c4.8,0,6.9-2,6.9-6.8c0-3.4-2.7-6.3-7-6.3h-6.1V137.8z"/>
	<path class="st64" d="M422.7,153.4h11c1.3,0,2.2,0.7,2.2,2.1c0,1.5-0.9,2.1-2.2,2.1h-13.2c-1.7,0-2.4-1.1-2.4-2.5v-32
		c0-1.4,0.7-2.5,2.4-2.5h13.2c1.3,0,2.2,0.7,2.2,2.1c0,1.5-0.9,2.1-2.2,2.1h-11V137h10c1.3,0,2.2,0.7,2.2,2.1c0,1.5-0.9,2.1-2.2,2.1
		h-10V153.4z"/>
	<path class="st64" d="M447.6,155.6c0,1.5-0.9,2.4-2.3,2.4s-2.3-0.9-2.3-2.4v-32.4c0-1.4,0.7-2.5,2.4-2.5h9c7.4,0,12,5.2,12,11.6
		c0,6.4-5.1,11.5-11.9,11.5h-7.1V155.6z M447.6,139.9h6.8c4.5,0,7.6-3.4,7.6-7.6c0-3.6-2.1-7.7-7.8-7.7h-6.6V139.9z"/>
	<path class="st64" d="M476.4,155.6c0,1.5-0.9,2.4-2.3,2.4c-1.4,0-2.3-0.9-2.3-2.4v-32.4c0-1.4,0.7-2.5,2.4-2.5h8.5
		c5.8,0,11.3,4,11.3,10c0,7.5-4.6,10.3-10.1,10.5l-2,0.1l11.8,12.9c0.6,0.7,0.9,1.2,0.9,2.1c0,1-0.9,1.8-2.1,1.8
		c-0.9,0-1.6-0.5-2.1-1l-14.1-15.5V155.6z M476.4,137.8h6.2c4.8,0,6.9-2,6.9-6.8c0-3.4-2.7-6.3-7-6.3h-6.1V137.8z"/>
	<path class="st64" d="M505.2,153.4h11c1.3,0,2.2,0.7,2.2,2.1c0,1.5-0.9,2.1-2.2,2.1h-13.2c-1.7,0-2.4-1.1-2.4-2.5v-32
		c0-1.4,0.7-2.5,2.4-2.5h13.2c1.3,0,2.2,0.7,2.2,2.1c0,1.5-0.9,2.1-2.2,2.1h-11V137h10c1.3,0,2.2,0.7,2.2,2.1c0,1.5-0.9,2.1-2.2,2.1
		h-10V153.4z"/>
	<path class="st64" d="M530.4,155.6c0,1.5-0.9,2.4-2.3,2.4c-1.4,0-2.3-0.9-2.3-2.4v-32.5c0-1.8,0.6-2.7,2.1-2.7c1.4,0,2,0.6,3.2,2.4
		l18.7,26.9h0.1v-26.8c0-1.5,0.9-2.4,2.3-2.4c1.4,0,2.3,0.9,2.3,2.4v32.5c0,1.8-0.6,2.7-2.1,2.7c-1.4,0-2-0.6-3.2-2.4l-18.7-26.9
		h-0.1V155.6z"/>
	<path class="st64" d="M567.2,153.4h11c1.3,0,2.2,0.7,2.2,2.1c0,1.5-0.9,2.1-2.2,2.1H565c-1.7,0-2.4-1.1-2.4-2.5v-32
		c0-1.4,0.7-2.5,2.4-2.5h13.2c1.3,0,2.2,0.7,2.2,2.1c0,1.5-0.9,2.1-2.2,2.1h-11V137h10c1.3,0,2.2,0.7,2.2,2.1c0,1.5-0.9,2.1-2.2,2.1
		h-10V153.4z"/>
	<path class="st64" d="M586.5,122.8c0-1.5,0.9-2.4,2.3-2.4s2.3,0.9,2.3,2.4v22c0,5.8,4,9.3,9.8,9.3c5.8,0,9.8-3.4,9.8-9.3v-22
		c0-1.5,0.9-2.4,2.3-2.4s2.3,0.9,2.3,2.4V143c0,12.5-8,15-14.4,15c-6.3,0-14.4-2.5-14.4-15V122.8z"/>
	<path class="st64" d="M627.1,155.6c0,1.5-0.9,2.4-2.3,2.4s-2.3-0.9-2.3-2.4v-32.4c0-1.4,0.7-2.5,2.4-2.5h8.5c5.8,0,11.3,4,11.3,10
		c0,7.5-4.6,10.3-10.1,10.5l-2,0.1l11.8,12.9c0.6,0.7,0.9,1.2,0.9,2.1c0,1-0.9,1.8-2.1,1.8c-0.9,0-1.6-0.5-2.1-1l-14.1-15.5V155.6z
		 M627.1,137.8h6.2c4.8,0,6.9-2,6.9-6.8c0-3.4-2.7-6.3-7-6.3h-6.1V137.8z"/>
	<path class="st64" d="M669.8,124.7c0,1.1-0.8,2-2,2c-2,0-2.7-2.4-7.3-2.4c-3.4,0-5.9,2.1-5.9,5.3c0,8.2,17.6,4.3,17.6,16.7
		c0,6.1-4.5,11.7-12.5,11.7c-4.9,0-10.3-1.9-10.3-4.5c0-1.2,0.6-2.3,1.9-2.3c1.6,0,3.7,2.9,8.4,2.9c4.7,0,7.6-3.4,7.6-7.5
		c0-8.8-17.6-4.5-17.6-16.6c0-4.3,4.1-9.5,10.9-9.5C665.3,120.4,669.8,122.3,669.8,124.7z"/>
	<path class="st64" d="M682.7,155.2c0,1.8-0.9,2.8-2.3,2.8c-1.4,0-2.3-0.9-2.3-2.8v-32.1c0-1.8,0.9-2.8,2.3-2.8
		c1.4,0,2.3,0.9,2.3,2.8v14h19.5v-14c0-1.8,0.9-2.8,2.3-2.8s2.3,0.9,2.3,2.8v32.1c0,1.8-0.9,2.8-2.3,2.8s-2.3-0.9-2.3-2.8v-14.1
		h-19.5V155.2z"/>
	<path class="st64" d="M720.3,155.6c0,1.5-0.9,2.4-2.3,2.4c-1.4,0-2.3-0.9-2.3-2.4v-32.8c0-1.5,0.9-2.4,2.3-2.4
		c1.4,0,2.3,0.9,2.3,2.4V155.6z"/>
	<path class="st64" d="M732.7,155.6c0,1.5-0.9,2.4-2.3,2.4s-2.3-0.9-2.3-2.4v-32.4c0-1.4,0.7-2.5,2.4-2.5h9c7.4,0,12,5.2,12,11.6
		c0,6.4-5.1,11.5-11.9,11.5h-7.1V155.6z M732.7,139.9h6.8c4.5,0,7.6-3.4,7.6-7.6c0-3.6-2.1-7.7-7.8-7.7h-6.6V139.9z"/>
	<path class="st64" d="M307.5,201.6c0,1.5-0.9,2.4-2.3,2.4c-1.4,0-2.3-0.9-2.3-2.4v-32.5c0-1.8,0.6-2.7,2.1-2.7c1.4,0,2,0.6,3.2,2.4
		l18.7,26.9h0.1v-26.8c0-1.5,0.9-2.4,2.3-2.4c1.4,0,2.3,0.9,2.3,2.4v32.5c0,1.8-0.6,2.7-2.1,2.7c-1.4,0-2-0.6-3.2-2.4l-18.7-26.9
		h-0.1V201.6z"/>
	<path class="st64" d="M343.5,199.4h11c1.3,0,2.2,0.7,2.2,2.1c0,1.5-0.9,2.1-2.2,2.1h-13.2c-1.7,0-2.4-1.1-2.4-2.5v-32
		c0-1.4,0.7-2.5,2.4-2.5h13.2c1.3,0,2.2,0.7,2.2,2.1c0,1.5-0.9,2.1-2.2,2.1h-11V183h10c1.3,0,2.2,0.7,2.2,2.1c0,1.5-0.9,2.1-2.2,2.1
		h-10V199.4z"/>
	<path class="st64" d="M369.6,170.9h-6.9c-1.3,0-2.2-0.7-2.2-2.1c0-1.5,0.9-2.1,2.2-2.1h18.4c1.3,0,2.2,0.7,2.2,2.1
		c0,1.5-0.9,2.1-2.2,2.1h-6.9v30.6c0,1.5-0.9,2.4-2.3,2.4c-1.4,0-2.3-0.9-2.3-2.4V170.9z"/>
	<path class="st64" d="M404.1,168.2c0.4-1.4,1.2-1.8,2.3-1.8c1.1,0,1.9,0.4,2.3,1.8l8.5,29.9h0.1l4.8-29.6c0.3-1.5,1.1-2.1,2.5-2.1
		c1.3,0,2.1,0.9,2.1,2.1c0,0.6-0.1,1.2-0.3,2.3l-5.6,30.2c-0.3,1.6-1,3-3.3,3c-1.8,0-2.9-0.5-3.6-3l-7.6-27.1h-0.1l-7.6,27.1
		c-0.7,2.5-1.8,3-3.6,3c-2.3,0-3-1.4-3.3-3l-5.6-30.2c-0.2-1.1-0.3-1.8-0.3-2.3c0-1.1,0.8-2.1,2.1-2.1c1.4,0,2.2,0.6,2.5,2.1
		l4.8,29.6h0.1L404.1,168.2z"/>
	<path class="st64" d="M446.2,166.4c10.6,0,16.2,9.2,16.2,18.8c0,9.6-5.7,18.8-16.2,18.8c-10.6,0-16.2-9.2-16.2-18.8
		C430,175.6,435.6,166.4,446.2,166.4z M446.2,200.1c8.3,0,11.3-7.8,11.3-14.9c0-7.1-3-14.9-11.3-14.9c-8.3,0-11.3,7.8-11.3,14.9
		C434.8,192.3,437.9,200.1,446.2,200.1z"/>
	<path class="st64" d="M472.4,201.6c0,1.5-0.9,2.4-2.3,2.4c-1.4,0-2.3-0.9-2.3-2.4v-32.4c0-1.4,0.7-2.5,2.4-2.5h8.5
		c5.8,0,11.3,4,11.3,10c0,7.5-4.6,10.3-10.1,10.5l-2,0.1l11.8,12.9c0.6,0.7,0.9,1.2,0.9,2.1c0,1-0.9,1.8-2.1,1.8
		c-0.9,0-1.6-0.5-2.1-1l-14.1-15.5V201.6z M472.4,183.8h6.2c4.8,0,6.9-2,6.9-6.8c0-3.4-2.7-6.3-7-6.3h-6.1V183.8z"/>
	<path class="st64" d="M500.7,201.6c0,1.5-0.9,2.4-2.3,2.4c-1.4,0-2.3-0.9-2.3-2.4v-32.8c0-1.5,0.9-2.4,2.3-2.4
		c1.4,0,2.3,0.9,2.3,2.4v13.5l15.9-14.5c0.8-0.8,1.6-1.5,2.5-1.5c1.1,0,2,0.8,2,2s-0.4,1.6-0.9,2.1l-15.2,13.7l16.6,16
		c0.7,0.7,0.9,1.2,0.9,1.9c0,1.1-1,2-2.2,2c-0.7,0-1.3-0.1-2.2-1l-17.3-17V201.6z"/>
</g>
</svg>
