<?xml version="1.0" encoding="utf-8"?>
<!-- Generator: Adobe Illustrator 24.0.2, SVG Export Plug-In . SVG Version: 6.00 Build 0)  -->
<svg version="1.1" id="Layer_1" xmlns="http://www.w3.org/2000/svg" xmlns:xlink="http://www.w3.org/1999/xlink" x="0px" y="0px"
	viewBox="0 0 636.568 220.8" enable-background="new 0 0 636.568 220.8" xml:space="preserve" height="33" width="87">
	<g>
		<path fill="#41B883" d="M204.8,0H256L128,220.8L0,0h50.56h47.36L128,51.2L157.44,0H204.8z"/>
		<path fill="#41B883" d="M0,0l128,220.8L256,0h-51.2L128,132.48L50.56,0H0z"/>
		<path fill="#35495E" d="M50.56,0L128,133.12L204.8,0h-47.36L128,51.2L97.92,0H50.56z"/>
	</g>
	<g>
		<path fill="#35495E" d="M344.273,62.791h11.795l-33.967,94.23h-10.828L277.5,62.791h11.602l21.656,60.972
			c2.491,7.005,4.469,13.815,5.93,20.432c1.547-6.961,3.566-13.899,6.059-20.818L344.273,62.791z"/>
			<path fill="#35495E" d="M377.467,86.38v45.826c0,5.759,1.311,10.055,3.932,12.891c2.62,2.836,6.725,4.254,12.311,4.254
				c7.39,0,12.794-2.019,16.21-6.059c3.416-4.038,5.124-10.635,5.124-19.787V86.38h10.699v70.64h-8.83l-1.547-9.475h-0.58
				c-2.191,3.48-5.231,6.146-9.12,7.992c-3.89,1.848-8.325,2.771-13.31,2.771c-8.595,0-15.028-2.04-19.304-6.123
				c-4.276-4.081-6.413-10.612-6.413-19.594V86.38H377.467z"/>
				<path fill="#35495E" d="M478.271,158.31c-10.441,0-18.682-3.179-24.718-9.539c-6.037-6.358-9.056-15.188-9.056-26.49
					c0-11.386,2.804-20.431,8.411-27.134s13.138-10.055,22.591-10.055c8.852,0,15.855,2.912,21.012,8.733
					c5.156,5.823,7.734,13.503,7.734,23.042v6.768h-48.662c0.215,8.294,2.31,14.589,6.284,18.885c3.974,4.298,9.571,6.445,16.79,6.445
					c7.605,0,15.124-1.589,22.559-4.77v9.539c-3.781,1.634-7.358,2.804-10.731,3.513C487.111,157.955,483.041,158.31,478.271,158.31z
					M475.371,94.05c-5.672,0-10.194,1.848-13.567,5.543c-3.374,3.696-5.36,8.809-5.962,15.339h36.932c0-6.745-1.505-11.912-4.512-15.5
					C485.254,95.845,480.956,94.05,475.371,94.05z"/>
					<path fill="#35495E" d="M520.939,150.188c0-2.878,0.654-5.06,1.966-6.542c1.311-1.482,3.19-2.224,5.64-2.224
						c2.491,0,4.437,0.741,5.833,2.224c1.396,1.482,2.095,3.664,2.095,6.542c0,2.794-0.709,4.942-2.127,6.445
						c-1.418,1.504-3.352,2.256-5.801,2.256c-2.191,0-4.007-0.677-5.446-2.03C521.658,155.506,520.939,153.282,520.939,150.188z"/>
						<path fill="#35495E" d="M549.041,188.731c-4.082,0-7.39-0.538-9.926-1.611v-8.701c2.965,0.859,5.888,1.289,8.766,1.289
							c3.352,0,5.811-0.913,7.38-2.739c1.568-1.827,2.353-4.608,2.353-8.347V86.38h10.699v81.468
							C568.313,181.771,561.889,188.731,549.041,188.731z M556.711,67.238c0-2.449,0.602-4.243,1.805-5.382
							c1.202-1.138,2.707-1.708,4.512-1.708c1.718,0,3.2,0.58,4.447,1.74c1.246,1.16,1.869,2.944,1.869,5.35
							c0,2.407-0.623,4.201-1.869,5.382c-1.247,1.182-2.729,1.772-4.447,1.772c-1.805,0-3.31-0.59-4.512-1.772
							C557.313,71.438,556.711,69.645,556.711,67.238z"/>
							<path fill="#35495E" d="M636.568,137.749c0,6.574-2.449,11.646-7.348,15.211c-4.898,3.567-11.773,5.35-20.625,5.35
								c-9.368,0-16.672-1.482-21.914-4.447v-9.926c3.394,1.72,7.035,3.073,10.925,4.061c3.889,0.989,7.638,1.482,11.247,1.482
								c5.585,0,9.883-0.891,12.891-2.675c3.007-1.782,4.512-4.5,4.512-8.153c0-2.749-1.192-5.102-3.577-7.058
								c-2.385-1.954-7.036-4.264-13.954-6.929c-6.574-2.449-11.247-4.586-14.019-6.413c-2.771-1.825-4.834-3.899-6.188-6.22
								c-1.354-2.32-2.03-5.091-2.03-8.314c0-5.757,2.342-10.301,7.025-13.632c4.683-3.33,11.107-4.995,19.271-4.995
								c7.605,0,15.039,1.547,22.301,4.641l-3.803,8.701c-7.09-2.921-13.514-4.383-19.271-4.383c-5.07,0-8.895,0.795-11.473,2.385
								c-2.578,1.59-3.867,3.782-3.867,6.574c0,1.891,0.483,3.502,1.45,4.834c0.967,1.333,2.523,2.6,4.673,3.802
								c2.148,1.204,6.273,2.944,12.375,5.221c8.379,3.052,14.04,6.123,16.983,9.217C635.096,129.177,636.568,133.066,636.568,137.749z"/>
							</g>
						</svg>
